<?xml version="1.0" encoding="UTF-8"?>
<svg id="_Слой_2" data-name="Слой 2" xmlns="http://www.w3.org/2000/svg" viewBox="0 0 232.4531 232.4526">
  <defs>
    <style>
      .cls-1 {
        fill: #b6a0e6;
      }
    </style>
  </defs>
  <g id="_Слой_1-2" data-name="Слой 1">
    <g>
      <path class="cls-1" d="m116.2266,167.9023c-28.4941,0-51.6758-23.1816-51.6758-51.6763s23.1816-51.6758,51.6758-51.6758,51.6768,23.1816,51.6768,51.6758-23.1816,51.6763-51.6768,51.6763Zm0-101.3521c-27.3916,0-49.6758,22.2847-49.6758,49.6758s22.2842,49.6763,49.6758,49.6763,49.6768-22.2847,49.6768-49.6763-22.2852-49.6758-49.6768-49.6758Z"/>
      <g>
        <path class="cls-1" d="m116.2266,50.938c-.5527,0-1-.4478-1-1v-6c0-.5522.4473-1,1-1s1,.4478,1,1v6c0,.5522-.4473,1-1,1Z"/>
        <path class="cls-1" d="m116.2266,32.6255c-.5527,0-1-.4478-1-1v-12.313c0-.5522.4473-1,1-1s1,.4478,1,1v12.313c0,.5522-.4473,1-1,1Z"/>
        <path class="cls-1" d="m116.2266,8c-.5527,0-1-.4478-1-1V1c0-.5522.4473-1,1-1s1,.4478,1,1v6c0,.5522-.4473,1-1,1Z"/>
      </g>
      <path class="cls-1" d="m101.1533,60.9771c-.4414,0-.8457-.2949-.9648-.7417l-3.1055-11.5913c-.1426-.5337.1738-1.082.707-1.2246.5342-.144,1.082.1733,1.2246.707l3.1055,11.5913c.1426.5337-.1738,1.082-.707,1.2246-.0869.0234-.1738.0347-.2598.0347Zm-6.2119-23.1821c-.4414,0-.8457-.2949-.9648-.7417l-3.1055-11.5913c-.1426-.5337.1738-1.082.707-1.2246.5352-.144,1.083.1733,1.2246.707l3.1055,11.5913c.1426.5337-.1738,1.082-.707,1.2246-.0869.0234-.1738.0347-.2598.0347Z"/>
      <g>
        <path class="cls-1" d="m83.084,59.8188c-.3457,0-.6816-.1792-.8672-.5l-3-5.1958c-.2764-.478-.1123-1.0898.3662-1.3662.4756-.2759,1.0889-.1133,1.3662.3662l3,5.1958c.2764.478.1123,1.0898-.3662,1.3662-.1572.0908-.3291.1338-.499.1338Z"/>
        <path class="cls-1" d="m73.9277,43.96c-.3457,0-.6816-.1792-.8672-.5l-6.1562-10.6631c-.2764-.4785-.1123-1.0898.3662-1.3662.4766-.2769,1.0889-.1128,1.3662.3662l6.1562,10.6631c.2764.4785.1123,1.0898-.3662,1.3662-.1572.0908-.3291.1338-.499.1338Z"/>
        <path class="cls-1" d="m61.6143,22.6333c-.3457,0-.6816-.1792-.8672-.5l-3-5.1958c-.2764-.478-.1123-1.0898.3662-1.3662.4756-.2759,1.0889-.1123,1.3662.3662l3,5.1958c.2764.478.1123,1.0898-.3662,1.3662-.1572.0908-.3291.1338-.499.1338Z"/>
      </g>
      <path class="cls-1" d="m75.0488,76.0483c-.2559,0-.5117-.0977-.707-.293l-8.4854-8.4854c-.3906-.3906-.3906-1.0234,0-1.4141s1.0234-.3906,1.4141,0l8.4854,8.4854c.3906.3906.3906,1.0234,0,1.4141-.1953.1953-.4512.293-.707.293Zm-16.9707-16.9707c-.2559,0-.5117-.0977-.707-.293l-8.4854-8.4854c-.3906-.3906-.3906-1.0234,0-1.4141s1.0234-.3906,1.4141,0l8.4854,8.4854c.3906.3906.3906,1.0234,0,1.4141-.1953.1953-.4512.293-.707.293Z"/>
      <g>
        <path class="cls-1" d="m58.8184,84.082c-.1699,0-.3418-.043-.499-.1338l-5.1963-3c-.4785-.2764-.6426-.8877-.3662-1.3662s.8877-.6426,1.3662-.3662l5.1963,3c.4785.2764.6426.8877.3662,1.3662-.1855.3208-.5215.5-.8672.5Z"/>
        <path class="cls-1" d="m42.959,74.9258c-.1699,0-.3418-.043-.499-.1338l-10.6631-6.1562c-.4785-.2764-.6426-.8877-.3662-1.3662.2764-.479.8887-.6431,1.3662-.3662l10.6631,6.1562c.4785.2764.6426.8877.3662,1.3662-.1855.3208-.5215.5-.8672.5Z"/>
        <path class="cls-1" d="m21.6328,62.6133c-.1699,0-.3418-.043-.499-.1338l-5.1963-3c-.4785-.2764-.6426-.8877-.3662-1.3662s.8877-.6421,1.3662-.3662l5.1963,3c.4785.2764.6426.8877.3662,1.3662-.1855.3208-.5215.5-.8672.5Z"/>
      </g>
      <path class="cls-1" d="m59.9775,102.1548c-.0859,0-.1729-.0112-.2598-.0347l-11.5908-3.106c-.5332-.1431-.8496-.6914-.707-1.2246.1426-.5337.6934-.8506,1.2246-.707l11.5908,3.106c.5332.1431.8496.6914.707,1.2246-.1191.4468-.5234.7417-.9648.7417Zm-23.1826-6.2119c-.0859,0-.1729-.0112-.2598-.0347l-11.5908-3.106c-.5332-.1431-.8496-.6914-.707-1.2246s.6943-.8496,1.2246-.707l11.5908,3.106c.5332.1431.8496.6914.707,1.2246-.1191.4468-.5234.7417-.9648.7417Z"/>
      <g>
        <path class="cls-1" d="m49.9385,117.2261h-6c-.5527,0-1-.4478-1-1s.4473-1,1-1h6c.5527,0,1,.4478,1,1s-.4473,1-1,1Z"/>
        <path class="cls-1" d="m31.626,117.2261h-12.3125c-.5527,0-1-.4478-1-1s.4473-1,1-1h12.3125c.5527,0,1,.4478,1,1s-.4473,1-1,1Z"/>
        <path class="cls-1" d="m7,117.2261H1c-.5527,0-1-.4478-1-1s.4473-1,1-1h6c.5527,0,1,.4478,1,1s-.4473,1-1,1Z"/>
      </g>
      <path class="cls-1" d="m25.2021,141.6167c-.4414,0-.8457-.2949-.9648-.7417-.1426-.5332.1738-1.0815.707-1.2246l11.5908-3.106c.5332-.1421,1.082.1738,1.2246.707s-.1738,1.0815-.707,1.2246l-11.5908,3.106c-.0869.0234-.1738.0347-.2598.0347Zm23.1826-6.2119c-.4414,0-.8457-.2949-.9648-.7417-.1426-.5332.1738-1.0815.707-1.2246l11.5908-3.106c.5332-.1445,1.082.1733,1.2246.707.1426.5332-.1738,1.0815-.707,1.2246l-11.5908,3.106c-.0869.0234-.1738.0347-.2598.0347Z"/>
      <g>
        <path class="cls-1" d="m53.624,153.3701c-.3457,0-.6816-.1792-.8672-.5-.2764-.4785-.1123-1.0898.3662-1.3662l5.1963-3c.4756-.2769,1.0889-.1128,1.3662.3662.2764.4785.1123,1.0898-.3662,1.3662l-5.1963,3c-.1572.0908-.3291.1338-.499.1338Z"/>
        <path class="cls-1" d="m32.2979,165.6831c-.3457,0-.6816-.1792-.8672-.5-.2764-.4785-.1123-1.0898.3662-1.3662l10.6631-6.1562c.4766-.2764,1.0889-.1128,1.3662.3662.2764.4785.1123,1.0898-.3662,1.3662l-10.6631,6.1562c-.1572.0908-.3291.1338-.499.1338Z"/>
        <path class="cls-1" d="m16.4385,174.8394c-.3457,0-.6816-.1792-.8672-.5-.2764-.4785-.1123-1.0898.3662-1.3662l5.1963-3c.4756-.2764,1.0889-.1123,1.3662.3662.2764.4785.1123,1.0898-.3662,1.3662l-5.1963,3c-.1572.0908-.3291.1338-.499.1338Z"/>
      </g>
      <path class="cls-1" d="m49.5928,183.8604c-.2559,0-.5117-.0977-.707-.293-.3906-.3906-.3906-1.0234,0-1.4141l8.4854-8.4854c.3906-.3906,1.0234-.3906,1.4141,0s.3906,1.0234,0,1.4141l-8.4854,8.4854c-.1953.1953-.4512.293-.707.293Zm16.9707-16.9707c-.2559,0-.5117-.0977-.707-.293-.3906-.3906-.3906-1.0234,0-1.4141l8.4854-8.4854c.3906-.3906,1.0234-.3906,1.4141,0s.3906,1.0234,0,1.4141l-8.4854,8.4854c-.1953.1953-.4512.293-.707.293Z"/>
      <g>
        <path class="cls-1" d="m80.082,179.8296c-.1699,0-.3418-.043-.499-.1338-.4785-.2764-.6426-.8877-.3662-1.3662l3-5.1963c.2764-.4785.8887-.6421,1.3662-.3662.4785.2764.6426.8877.3662,1.3662l-3,5.1963c-.1855.3208-.5215.5-.8672.5Z"/>
        <path class="cls-1" d="m67.7686,201.1558c-.1699,0-.3418-.043-.499-.1338-.4785-.2764-.6426-.8882-.3662-1.3662l6.1572-10.6631c.2764-.479.8877-.6431,1.3662-.3662.4785.2764.6426.8882.3662,1.3662l-6.1572,10.6631c-.1855.3208-.5215.5-.8672.5Z"/>
        <path class="cls-1" d="m58.6123,217.0151c-.1699,0-.3418-.043-.499-.1338-.4785-.2764-.6426-.8882-.3662-1.3662l3-5.1958c.2764-.4785.8887-.6421,1.3662-.3662.4785.2764.6426.8882.3662,1.3662l-3,5.1958c-.1855.3208-.5215.5-.8672.5Z"/>
      </g>
      <path class="cls-1" d="m91.8379,208.25c-.0859,0-.1729-.0112-.2598-.0347-.5332-.1426-.8496-.6909-.707-1.2246l3.1055-11.5913c.1426-.5337.6934-.8506,1.2246-.707.5332.1426.8496.6909.707,1.2246l-3.1055,11.5913c-.1191.4468-.5234.7417-.9648.7417Zm6.2119-23.1821c-.0859,0-.1729-.0112-.2598-.0347-.5332-.1426-.8496-.6909-.707-1.2246l3.1055-11.5913c.1426-.5337.6924-.8506,1.2246-.707.5332.1426.8496.6909.707,1.2246l-3.1055,11.5913c-.1191.4468-.5234.7417-.9648.7417Z"/>
      <g>
        <path class="cls-1" d="m116.2266,189.5146c-.5527,0-1-.4478-1-1v-6c0-.5522.4473-1,1-1s1,.4478,1,1v6c0,.5522-.4473,1-1,1Z"/>
        <path class="cls-1" d="m116.2266,214.1401c-.5527,0-1-.4478-1-1v-12.313c0-.5522.4473-1,1-1s1,.4478,1,1v12.313c0,.5522-.4473,1-1,1Z"/>
        <path class="cls-1" d="m116.2266,232.4526c-.5527,0-1-.4478-1-1v-6c0-.5522.4473-1,1-1s1,.4478,1,1v6c0,.5522-.4473,1-1,1Z"/>
      </g>
      <path class="cls-1" d="m140.6152,208.25c-.4414,0-.8457-.2949-.9648-.7417l-3.1055-11.5913c-.1426-.5337.1738-1.082.707-1.2246.5332-.1445,1.082.1733,1.2246.707l3.1055,11.5913c.1426.5337-.1738,1.082-.707,1.2246-.0869.0234-.1738.0347-.2598.0347Zm-6.2119-23.1821c-.4414,0-.8457-.2949-.9648-.7417l-3.1055-11.5913c-.1426-.5337.1738-1.082.707-1.2246.5342-.1445,1.083.1733,1.2246.707l3.1055,11.5913c.1426.5337-.1738,1.082-.707,1.2246-.0869.0234-.1738.0347-.2598.0347Z"/>
      <g>
        <path class="cls-1" d="m152.3721,179.8296c-.3457,0-.6816-.1792-.8672-.5l-3-5.1963c-.2764-.4785-.1123-1.0898.3662-1.3662.4775-.2759,1.0889-.1123,1.3662.3662l3,5.1963c.2764.4785.1123,1.0898-.3662,1.3662-.1572.0908-.3291.1338-.499.1338Z"/>
        <path class="cls-1" d="m164.6846,201.1558c-.3457,0-.6816-.1792-.8672-.5l-6.1562-10.6631c-.2764-.4785-.1123-1.0898.3662-1.3662.4766-.2769,1.0898-.1128,1.3662.3662l6.1562,10.6631c.2764.4785.1123,1.0898-.3662,1.3662-.1572.0908-.3291.1338-.499.1338Z"/>
        <path class="cls-1" d="m173.8408,217.0151c-.3457,0-.6816-.1792-.8672-.5l-3-5.1958c-.2764-.478-.1123-1.0898.3662-1.3662.4766-.2759,1.0898-.1123,1.3662.3662l3,5.1958c.2764.478.1123,1.0898-.3662,1.3662-.1572.0908-.3291.1338-.499.1338Z"/>
      </g>
      <path class="cls-1" d="m182.8604,183.8599c-.2559,0-.5117-.0977-.707-.293l-8.4854-8.4854c-.3906-.3906-.3906-1.0234,0-1.4141s1.0234-.3906,1.4141,0l8.4854,8.4854c.3906.3906.3906,1.0234,0,1.4141-.1953.1953-.4512.293-.707.293Zm-16.9707-16.9702c-.2559,0-.5117-.0977-.707-.293l-8.4854-8.4854c-.3906-.3906-.3906-1.0234,0-1.4141s1.0234-.3906,1.4141,0l8.4854,8.4854c.3906.3906.3906,1.0234,0,1.4141-.1953.1953-.4512.293-.707.293Z"/>
      <g>
        <path class="cls-1" d="m178.8291,153.3701c-.1699,0-.3418-.043-.499-.1338l-5.1963-3c-.4785-.2764-.6426-.8877-.3662-1.3662.2764-.479.8887-.6431,1.3662-.3662l5.1963,3c.4785.2764.6426.8877.3662,1.3662-.1855.3208-.5215.5-.8672.5Z"/>
        <path class="cls-1" d="m200.1553,165.6831c-.1699,0-.3418-.043-.499-.1338l-10.6631-6.1562c-.4785-.2764-.6426-.8877-.3662-1.3662.2764-.479.8877-.6426,1.3662-.3662l10.6631,6.1562c.4785.2764.6426.8877.3662,1.3662-.1855.3208-.5215.5-.8672.5Z"/>
        <path class="cls-1" d="m216.0146,174.8394c-.1699,0-.3418-.043-.499-.1338l-5.1963-3c-.4785-.2764-.6426-.8877-.3662-1.3662s.8877-.6426,1.3662-.3662l5.1963,3c.4785.2764.6426.8877.3662,1.3662-.1855.3208-.5215.5-.8672.5Z"/>
      </g>
      <path class="cls-1" d="m207.251,141.6167c-.0859,0-.1729-.0112-.2598-.0347l-11.5908-3.106c-.5332-.1431-.8496-.6914-.707-1.2246s.6924-.8486,1.2246-.707l11.5908,3.106c.5332.1431.8496.6914.707,1.2246-.1191.4468-.5234.7417-.9648.7417Zm-23.1826-6.2119c-.0859,0-.1729-.0112-.2598-.0347l-11.5908-3.106c-.5332-.1431-.8496-.6914-.707-1.2246.1426-.5337.6934-.8506,1.2246-.707l11.5908,3.106c.5332.1431.8496.6914.707,1.2246-.1191.4468-.5234.7417-.9648.7417Z"/>
      <g>
        <path class="cls-1" d="m188.5146,117.2261h-6c-.5527,0-1-.4478-1-1s.4473-1,1-1h6c.5527,0,1,.4478,1,1s-.4473,1-1,1Z"/>
        <path class="cls-1" d="m213.1406,117.2261h-12.3125c-.5527,0-1-.4478-1-1s.4473-1,1-1h12.3125c.5527,0,1,.4478,1,1s-.4473,1-1,1Z"/>
        <path class="cls-1" d="m231.4531,117.2261h-6c-.5527,0-1-.4478-1-1s.4473-1,1-1h6c.5527,0,1,.4478,1,1s-.4473,1-1,1Z"/>
      </g>
      <path class="cls-1" d="m172.4756,102.1548c-.4414,0-.8457-.2949-.9648-.7417-.1426-.5332.1738-1.0815.707-1.2246l11.5908-3.106c.5352-.144,1.082.1733,1.2246.707.1426.5332-.1738,1.0815-.707,1.2246l-11.5908,3.106c-.0869.0234-.1738.0347-.2598.0347Zm23.1826-6.2119c-.4414,0-.8457-.2949-.9648-.7417-.1426-.5332.1738-1.0815.707-1.2246l11.5908-3.106c.5352-.1436,1.082.1733,1.2246.707.1426.5332-.1738,1.0815-.707,1.2246l-11.5908,3.106c-.0869.0234-.1738.0347-.2598.0347Z"/>
      <g>
        <path class="cls-1" d="m173.6348,84.082c-.3457,0-.6816-.1792-.8672-.5-.2764-.4785-.1123-1.0898.3662-1.3662l5.1963-3c.4766-.2764,1.0889-.1123,1.3662.3662.2764.4785.1123,1.0898-.3662,1.3662l-5.1963,3c-.1572.0908-.3291.1338-.499.1338Z"/>
        <path class="cls-1" d="m189.4941,74.9258c-.3457,0-.6816-.1792-.8672-.5-.2764-.4785-.1123-1.0898.3662-1.3662l10.6631-6.1562c.4766-.2769,1.0898-.1128,1.3662.3662.2764.4785.1123,1.0898-.3662,1.3662l-10.6631,6.1562c-.1572.0908-.3291.1338-.499.1338Z"/>
        <path class="cls-1" d="m210.8203,62.6133c-.3457,0-.6816-.1792-.8672-.5-.2764-.4785-.1123-1.0898.3662-1.3662l5.1963-3c.4775-.2759,1.0889-.1123,1.3662.3662.2764.4785.1123,1.0898-.3662,1.3662l-5.1963,3c-.1572.0908-.3291.1338-.499.1338Z"/>
      </g>
      <path class="cls-1" d="m157.4043,76.0483c-.2559,0-.5117-.0977-.707-.293-.3906-.3906-.3906-1.0234,0-1.4141l8.4854-8.4854c.3906-.3906,1.0234-.3906,1.4141,0s.3906,1.0234,0,1.4141l-8.4854,8.4854c-.1953.1953-.4512.293-.707.293Zm16.9707-16.9702c-.2559,0-.5117-.0977-.707-.293-.3906-.3906-.3906-1.0234,0-1.4141l8.4854-8.4854c.3906-.3906,1.0234-.3906,1.4141,0s.3906,1.0234,0,1.4141l-8.4854,8.4854c-.1953.1953-.4512.293-.707.293Z"/>
      <g>
        <path class="cls-1" d="m149.3701,59.8193c-.1699,0-.3418-.043-.499-.1338-.4785-.2764-.6426-.8877-.3662-1.3662l3-5.1963c.2764-.4795.8877-.6421,1.3662-.3662.4785.2764.6426.8877.3662,1.3662l-3,5.1963c-.1855.3208-.5215.5-.8672.5Z"/>
        <path class="cls-1" d="m158.5264,43.96c-.1699,0-.3418-.043-.499-.1338-.4785-.2764-.6426-.8877-.3662-1.3662l6.1562-10.6631c.2764-.479.8887-.6431,1.3662-.3662.4785.2764.6426.8877.3662,1.3662l-6.1562,10.6631c-.1855.3208-.5215.5-.8672.5Z"/>
        <path class="cls-1" d="m170.8389,22.6333c-.1699,0-.3418-.043-.499-.1338-.4785-.2764-.6426-.8882-.3662-1.3662l3-5.1958c.2764-.4785.8887-.6421,1.3662-.3662.4785.2764.6426.8882.3662,1.3662l-3,5.1958c-.1855.3208-.5215.5-.8672.5Z"/>
      </g>
      <path class="cls-1" d="m131.2998,60.9771c-.0859,0-.1729-.0112-.2598-.0347-.5332-.1426-.8496-.6909-.707-1.2246l3.1055-11.5913c.1426-.5337.6924-.8506,1.2246-.707.5332.1426.8496.6909.707,1.2246l-3.1055,11.5913c-.1191.4468-.5234.7417-.9648.7417Zm6.2119-23.1821c-.0859,0-.1729-.0112-.2598-.0347-.5332-.1426-.8496-.6909-.707-1.2246l3.1055-11.5913c.1426-.5337.6943-.8506,1.2246-.707.5332.1426.8496.6909.707,1.2246l-3.1055,11.5913c-.1191.4468-.5234.7417-.9648.7417Z"/>
    </g>
  </g>
</svg>