<?xml version="1.0" encoding="UTF-8"?>
<svg id="_Слой_2" data-name="Слой 2" xmlns="http://www.w3.org/2000/svg" viewBox="0 0 415.2258 200.7583">
  <defs>
    <style>
      .cls-1 {
        fill: #b6a0e6;
      }

      .cls-2 {
        fill: none;
      }
    </style>
  </defs>
  <g id="_Слой_1-2" data-name="Слой 1">
    <path class="cls-1" d="m206.8475,122.9399c-.3066,0-.6094-.1406-.8052-.4062-2.3291-3.1523-5.042-6.0166-8.064-8.5137-.4258-.3516-.4858-.9814-.1343-1.4072.3516-.4248.9834-.4863,1.4077-.1338,3.1475,2.5996,5.9731,5.583,8.3989,8.8672.3281.4443.2344,1.0703-.21,1.3984-.1787.1318-.3872.1953-.5933.1953Zm-18.3223-15.126c-.1445,0-.291-.0312-.4302-.0977-3.5366-1.6865-7.2778-2.9307-11.1196-3.6992-.5415-.1084-.8926-.6348-.7842-1.1768.1079-.542.6338-.8965,1.1768-.7842,4.0034.8008,7.9023,2.0977,11.5884,3.8555.498.2373.7095.834.4722,1.333-.1719.3594-.5303.5693-.9033.5693Zm-35.0879-2.6484c-.4292,0-.8257-.2783-.9565-.71-.1602-.5283.1387-1.0869.667-1.2471,3.8901-1.1787,7.9409-1.873,12.041-2.0645.5396-.0244,1.02.4014,1.0454.9521.0254.5518-.4009,1.0205-.9526,1.0459-3.9346.1836-7.8218.8496-11.5537,1.9805-.0967.0293-.1943.043-.2905.043Zm-7.0122-3.8281c-.4248,0-.8188-.2725-.9531-.7002-1.1753-3.7324-2.8149-7.3193-4.873-10.6611-.2896-.4707-.1431-1.0859.3271-1.376.4712-.29,1.0864-.1426,1.376.3271,2.1445,3.4814,3.8525,7.2197,5.0771,11.1104.166.5264-.1265,1.0879-.6533,1.2539-.1001.0312-.2012.0459-.3008.0459Zm-12.4478-20.2344c-.2524,0-.5044-.0947-.6992-.2852-2.8062-2.7441-5.9414-5.1367-9.3188-7.1123-.4766-.2793-.6372-.8916-.3584-1.3682.2783-.4775.8911-.6387,1.3682-.3584,3.5186,2.0576,6.7847,4.5508,9.7075,7.4092.395.3857.4019,1.0195.0156,1.4141-.1958.2002-.4551.3008-.7148.3008Zm-20.5049-11.9863c-.0923,0-.186-.0127-.2793-.04-3.7485-1.0869-7.6426-1.7119-11.5732-1.8555-.5518-.0195-.9829-.4834-.9629-1.0352.0205-.5518.478-.9961,1.0361-.9629,4.0947.1494,8.1514.7998,12.0576,1.9336.5303.1533.8354.708.6816,1.2383-.127.4375-.5264.7217-.96.7217Z"/>
    <path class="cls-2" d="m214.6829,138.1536c2.3895-.7461,4.929-1.1486,7.5604-1.1486,1.99,0,3.94.23,5.8.68-1.65-3.37-2.58-7.16-2.58-11.16,0-1.5659.1497-3.0966.4219-4.5849h-19.0386c3.55,4.806,6.2341,10.2867,7.8364,16.2135Z"/>
    <path class="cls-1" d="m360.0325,188.8354h-12c-.5522,0-1-.4473-1-1s.4478-1,1-1h12c.5522,0,1,.4473,1,1s-.4478,1-1,1Zm-24,0h-12c-.5522,0-1-.4473-1-1s.4478-1,1-1h12c.5522,0,1,.4473,1,1s-.4478,1-1,1Zm-24,0h-12c-.5522,0-1-.4473-1-1s.4478-1,1-1h12c.5522,0,1,.4473,1,1s-.4478,1-1,1Zm-24,0h-12c-.5522,0-1-.4473-1-1s.4478-1,1-1h12c.5522,0,1,.4473,1,1s-.4478,1-1,1Zm-24,0h-12c-.5522,0-1-.4473-1-1s.4478-1,1-1h12c.5522,0,1,.4473,1,1s-.4478,1-1,1Zm-24,0h-12c-.5522,0-1-.4473-1-1s.4478-1,1-1h12c.5522,0,1,.4473,1,1s-.4478,1-1,1Zm131.9658-.5762c-.4854,0-.9111-.3535-.9868-.8486-.084-.5459.291-1.0557.8369-1.1396,3.8745-.5938,7.6738-1.6602,11.293-3.1689.5093-.2129,1.0952.0293,1.3076.5381.2129.5098-.0283,1.0957-.5381,1.3076-3.7686,1.5713-7.7251,2.6816-11.7598,3.2998-.0513.0078-.1021.0117-.1528.0117Zm-155.9028-.1777c-.0806,0-.1621-.0098-.2437-.0303-4.0166-1.0039-7.8022-2.9844-10.9478-5.7266-.416-.3633-.4595-.9951-.0967-1.4111.3633-.415.9956-.459,1.4111-.0967,2.9082,2.5361,6.4072,4.3662,10.1187,5.2949.5356.1338.8613.6768.7275,1.2119-.1138.4551-.5215.7578-.9692.7578Zm177.8457-8.9609c-.3066,0-.6094-.1406-.8057-.4062-.3281-.4443-.2334-1.0703.2109-1.3984,3.1533-2.3271,6.0269-5.0322,8.5415-8.041.3545-.4229.9849-.4805,1.4082-.126.4238.3545.4805.9854.1265,1.4092-2.6167,3.1309-5.6069,5.9453-8.8887,8.3672-.1787.1318-.3867.1953-.5928.1953Zm15.2354-18.2344c-.1475,0-.2979-.0332-.4395-.1025-.4961-.2432-.7007-.8418-.4575-1.3379,1.7285-3.5215,3.0259-7.2461,3.8564-11.0723.1172-.54.6528-.8838,1.189-.7656.54.1172.8823.6504.7651,1.1895-.8647,3.9844-2.2153,7.8633-4.0146,11.5293-.1738.3545-.5293.5596-.8989.5596Zm5.0488-23.2178c-.54,0-.9849-.4307-.999-.9736-.104-3.9297-.6807-7.832-1.7144-11.5996-.146-.5322.167-1.083.6997-1.2295.5332-.1416,1.0825.167,1.229.7002,1.0762,3.9229,1.6768,7.9854,1.7847,12.0762.0146.5518-.4209,1.0117-.9731,1.0264h-.0269Zm-6.2891-22.9131c-.3506,0-.6904-.1846-.8735-.5117-1.9116-3.417-4.2368-6.6055-6.9116-9.4785-.3765-.4043-.3535-1.0371.0508-1.4131.4028-.376,1.0366-.3545,1.4131.0498,2.7837,2.9902,5.2036,6.3096,7.1929,9.8652.27.4824.0977,1.0918-.3843,1.3613-.1543.0859-.3223.127-.4873.127Zm-16.1943-17.3975c-.1885,0-.3794-.0527-.5488-.165-3.2793-2.1582-6.8101-3.915-10.4941-5.2217-.5205-.1846-.7925-.7559-.6079-1.2764s.7554-.793,1.2769-.6084c3.8354,1.3604,7.5112,3.1895,10.9248,5.4365.4614.3037.5894.9238.2856,1.3848-.1924.292-.5112.4502-.8364.4502Zm-22.3877-7.9346c-.0327,0-.0659-.002-.0996-.0049-1.3828-.1367-2.7944-.2158-4.1943-.2334-.4399-.0059-.8242-.2979-.9473-.7207-.7021-2.4092-1.6001-4.7842-2.6694-7.0586-.2349-.5-.02-1.0957.48-1.3311.499-.2334,1.0962-.0205,1.3301.4795,1.0088,2.1465,1.8716,4.3789,2.5684,6.6455,1.2144.0332,2.4321.1104,3.6299.2285.5493.0547.9507.5439.8965,1.0938-.0513.5156-.4858.9014-.9941.9014Zm-13.3599-17.5869c-.2915,0-.5806-.127-.7783-.3711-2.4639-3.0488-5.2925-5.8018-8.4077-8.1826-.439-.335-.5229-.9629-.1875-1.4014.335-.439.9609-.5249,1.4014-.1875,3.2422,2.4766,6.1855,5.3418,8.7495,8.5137.3472.4297.2803,1.0596-.1494,1.4062-.1851.1504-.4072.2227-.6279.2227Zm-18.8931-14.4214c-.1338,0-.2695-.0273-.3999-.084-3.5918-1.5688-7.3721-2.6992-11.2349-3.3589-.5444-.0933-.9102-.6099-.8174-1.1543.0933-.5439.606-.9092,1.1543-.8174,4.0225.6875,7.958,1.8643,11.6987,3.4976.5059.2212.7368.8105.5161,1.3169-.1641.3755-.5317.6001-.917.6001Zm-35.1719-1.731c-.4219,0-.8145-.2695-.9512-.6924-.1704-.5254.1177-1.0894.6431-1.2593,3.8809-1.2573,7.9141-2.041,11.9878-2.3301.5537-.0239,1.0293.3755,1.0684.9268.0391.5508-.376,1.0293-.9268,1.0684-3.9126.2773-7.7861,1.0303-11.5132,2.2373-.1025.0332-.2061.0493-.3081.0493Z"/>
    <path class="cls-1" d="m214.6824,139.1538c-.4258,0-.8203-.2744-.9541-.7021-.1646-.5273.1294-1.0879.6567-1.252,3.8535-1.2041,8.0352-1.5,11.96-.873-1.2495-3.1133-1.8818-6.4023-1.8818-9.8018,0-1.5703.1475-3.1738.438-4.7646.0996-.543.624-.9092,1.1636-.8037.5435.0986.9033.6201.8042,1.1631-.2695,1.4727-.4058,2.9551-.4058,4.4053,0,3.7549.834,7.3613,2.478,10.7207.1704.3477.1245.7637-.1182,1.0654s-.6387.4404-1.0151.3457c-4.104-.9932-8.6768-.8438-12.8271.4512-.0991.0312-.1992.0459-.2983.0459Z"/>
    <path class="cls-1" d="m162.2323,200.7583h-12c-.5522,0-1-.4473-1-1s.4478-1,1-1h12c.5522,0,1,.4473,1,1s-.4478,1-1,1Zm-24,0h-12c-.5522,0-1-.4473-1-1s.4478-1,1-1h12c.5522,0,1,.4473,1,1s-.4478,1-1,1Zm-24,0h-12c-.5522,0-1-.4473-1-1s.4478-1,1-1h12c.5522,0,1,.4473,1,1s-.4478,1-1,1Zm-24,0h-12c-.5522,0-1-.4473-1-1s.4478-1,1-1h12c.5522,0,1,.4473,1,1s-.4478,1-1,1Zm-24,0h-12c-.5522,0-1-.4473-1-1s.4478-1,1-1h12c.5522,0,1,.4473,1,1s-.4478,1-1,1Zm-24,0h-6c-2.0581,0-4.123-.1748-6.1382-.5186-.5444-.0928-.9106-.6094-.8179-1.1533s.6108-.9111,1.1538-.8174c1.9048.3242,3.8569.4893,5.8022.4893h6c.5522,0,1,.4473,1,1s-.4478,1-1,1Zm131.9805-.4512c-.4922,0-.9209-.3633-.9893-.8652-.0747-.5469.3081-1.0508.8555-1.126,3.8877-.5303,7.7002-1.542,11.3306-3.0059.5132-.2021,1.0957.042,1.3013.5537.2065.5127-.041,1.0947-.5532,1.3018-3.7837,1.5254-7.7568,2.5791-11.8081,3.1328-.0459.0059-.0913.0088-.1367.0088Zm-155.2051-4.0371c-.1655,0-.3335-.041-.4883-.1279-3.5986-2.0195-6.8076-4.6191-9.5381-7.7275-.3643-.415-.3232-1.0469.0918-1.4111.4146-.3643,1.0469-.3223,1.4111.0908,2.5801,2.9385,5.6128,5.3955,9.0137,7.3037.4819.2705.6533.8799.3828,1.3613-.1836.3271-.5229.5107-.873.5107Zm177.2432-4.8389c-.3091,0-.6138-.1426-.8096-.4111-.3247-.4463-.2266-1.0723.2197-1.3975,3.168-2.3066,6.0503-5,8.5674-8.0059.354-.4248.9849-.4805,1.4087-.125.4233.3545.479.9854.1245,1.4082-2.6216,3.1318-5.6235,5.9375-8.9229,8.3398-.1777.1289-.3838.1914-.5879.1914ZM3.4823,178.5815c-.397,0-.7725-.2373-.9292-.6289C1.0228,174.1255.1639,170.0845.0008,165.9399c-.022-.5518.4077-1.0166.9595-1.0381.5771-.041,1.0171.4082,1.0386.96.1543,3.915.9658,7.7334,2.4116,11.3486.2051.5127-.0444,1.0947-.5576,1.2998-.1216.0488-.2471.0713-.3706.0713Zm195.5234-4.8691c-.3828,0-.748-.2207-.9141-.5928-1.5049-3.377-2.2681-6.9746-2.2686-10.6943,0-.4893.0132-.9746.0396-1.459.0303-.5508.5229-1.0068,1.0527-.9434.5518.0293.9746.501.9443,1.0527-.0244.4473-.0366.8975-.0366,1.3496.0005,3.4365.7056,6.7607,2.0957,9.8799.2246.5049-.002,1.0957-.5063,1.3203-.1323.0596-.2705.0869-.4067.0869ZM2.5413,155.061c-.0981,0-.1973-.0146-.2959-.0449-.5273-.1631-.8232-.7227-.6602-1.25,1.2173-3.9395,3.0913-7.6201,5.5698-10.9404.3306-.4434.9556-.5352,1.3994-.2041.4424.3311.5337.957.2031,1.3994-2.3413,3.1377-4.1118,6.6152-5.2612,10.335-.1328.4297-.5283.7051-.9551.7051Zm197.7383-4.4229c-.1714,0-.3452-.0439-.5039-.1367-.4766-.2783-.6372-.8916-.3584-1.3682,2.0957-3.584,5.0498-6.6709,8.543-8.9238.4648-.2998,1.083-.166,1.3823.2979s.166,1.083-.2983,1.3818c-3.2305,2.085-5.9624,4.9385-7.9004,8.2539-.186.3184-.5205.4951-.8643.4951Zm-183.6719-14.4473c-.3223,0-.6382-.1553-.8311-.4424-.3081-.459-.186-1.0801.2725-1.3877,2.1943-1.4736,4.5396-2.7012,6.9893-3.6602-.3291-.4189-.6445-.8467-.9438-1.2812-.3135-.4541-.1992-1.0771.2559-1.3906.4526-.3135,1.0771-.1992,1.3906.2559.5259.7617,1.105,1.5039,1.7212,2.2031.2207.25.3018.5938.2168.916s-.3247.5811-.6396.6904c-2.7754.96-5.4248,2.2812-7.875,3.9268-.1714.1152-.3647.1699-.5566.1699Zm196.4702-1.9316c-.4004,0-.7788-.2422-.9321-.6387-1.4165-3.6523-3.2842-7.126-5.5518-10.3262-.3193-.4502-.2129-1.0742.2378-1.3936.4502-.3213,1.0752-.2129,1.394.2373,2.3628,3.334,4.3086,6.9541,5.7842,10.7598.1997.5146-.0557,1.0938-.5708,1.2939-.1187.0459-.2407.0674-.3613.0674Zm-194.3101-15.5371c-.5029,0-.936-.3789-.9927-.8906-.1016-.9229-.1533-1.8652-.1533-2.8027,0-3.2646.6104-6.4443,1.8135-9.4492.2046-.5127.7861-.7637,1.2998-.5566.5127.2061.7622.7881.5566,1.3008-1.1079,2.7666-1.6699,5.6963-1.6699,8.7051,0,.8643.0474,1.7334.1416,2.584.0605.5488-.3354,1.043-.8843,1.1035-.0376.0039-.0742.0059-.1113.0059Zm8.5635-21.3906c-.2852,0-.5679-.1211-.7656-.3564-.3555-.4229-.3013-1.0537.1216-1.4092,3.1982-2.6895,7.0415-4.5625,11.1143-5.416.5435-.1143,1.0708.2324,1.1836.7734.1133.541-.2329,1.0703-.7734,1.1836-3.7505.7861-7.2905,2.5117-10.2373,4.9902-.1875.1572-.416.2344-.6431.2344Zm28.3608-2.1924c-.1812,0-.3608-.0488-.519-.1455-1.7446-1.0586-3.6211-1.8848-5.5767-2.4551-.5303-.1543-.835-.71-.6802-1.2393.1543-.5312.7109-.834,1.2397-.6807,1.7739.5166,3.4873,1.2275,5.1074,2.1182.6938-1.3857,1.458-2.748,2.2783-4.0615.2925-.4688.9087-.6113,1.3779-.3193.4683.293.6108.9102.3184,1.3779-.9707,1.5557-1.8599,3.1816-2.6421,4.833-.1211.2559-.3452.4492-.6167.5303-.0938.0283-.1909.042-.2871.042Zm10.2285-14.2363c-.2617,0-.5229-.1025-.7192-.3057-.3838-.3965-.3726-1.0303.0244-1.4131,2.9385-2.8398,6.2197-5.3125,9.7529-7.3516.4795-.2764,1.0898-.1113,1.3662.3662.2759.4785.1118,1.0898-.3662,1.3662-3.3921,1.957-6.542,4.3311-9.3633,7.0566-.1943.1875-.4443.2812-.6948.2812Zm20.583-11.8643c-.436,0-.8369-.2871-.9614-.7275-.1509-.5312.1577-1.084.689-1.2344,3.9136-1.1104,7.9761-1.7354,12.0742-1.8604.5386-.0088,1.0127.417,1.0298.9697.0166.5518-.417,1.0127-.9692,1.0303-3.9341.1191-7.8335.7197-11.5889,1.7842-.0913.0264-.1831.0381-.2734.0381Z"/>
    <path class="cls-1" d="m205.5609,182.5708c-.2329,0-.4673-.0811-.6567-.2461-5.771-5.0312-9.0811-12.2842-9.0811-19.8994,0-11.6221,7.4595-21.7588,18.562-25.2256.5254-.165,1.0879.1289,1.2524.6562s-.1294,1.0879-.6567,1.252c-10.2627,3.2051-17.1577,12.5752-17.1577,23.3174,0,7.0371,3.0601,13.7402,8.3955,18.3916.416.3633.4595.9951.0967,1.4111-.1978.2266-.4756.3428-.7544.3428Z"/>
    <path class="cls-1" d="m225.8851,122.9399h-19.0386c-.3174,0-.6157-.1504-.8042-.4062-8.9946-12.1758-23.3833-19.4453-38.4902-19.4453-6.7163,0-13.1978,1.3643-19.2646,4.0547-.2803.125-.6016.1123-.873-.0303-.271-.1436-.4614-.4033-.5161-.7051-4.1318-22.7246-23.9219-39.2188-47.0562-39.2188-.4941,0-.9849.0117-1.4751.0264-.3315.0303-.6382-.1396-.833-.4014-.1953-.2617-.2505-.6025-.1475-.9131,5.9009-17.7588,22.4355-29.6909,41.1455-29.6909,6.2788,0,12.3018,1.3008,17.9233,3.8682C161.0677,16.7759,181.4202,0,205.3421,0c21.603,0,40.9204,14.1689,47.4692,34.6294,4.7329-3.2495,10.2554-4.9595,16.061-4.9595,15.2646,0,27.7603,11.9341,28.4473,27.1689.0181.4053-.21.7812-.5781.9521-17.2271,7.9917-28.3584,25.3862-28.3584,44.314,0,1.7373.0957,3.5049.2842,5.2529.0444.4102-.168.8057-.5347.9961-.3662.1885-.8125.1338-1.1216-.1396-4.4575-3.9395-10.1885-6.1094-16.1377-6.1094-11.7886,0-21.8838,8.417-24.0044,20.0146-.0869.4756-.501.8203-.9839.8203Zm-18.5371-2h17.7168c2.6108-12.123,13.3335-20.835,25.8086-20.835,5.6392,0,11.0972,1.8018,15.6064,5.1143-.0645-1.042-.0967-2.083-.0967-3.1143,0-19.4775,11.3203-37.3936,28.9004-45.8374-.9644-13.8462-12.4404-24.5977-26.4111-24.5977-5.8428,0-11.377,1.8623-16.0039,5.3857-.2632.2002-.6069.2578-.9199.1538-.3135-.1035-.5552-.355-.647-.6719-5.8701-20.3354-24.7695-34.5376-45.9595-34.5376-23.3848,0-43.2158,16.6997-47.1538,39.709-.0532.311-.2505.5786-.5317.7222-.2812.1431-.6138.146-.897.0054-5.6807-2.8047-11.8135-4.2266-18.2275-4.2266-17.3706,0-32.7764,10.7837-38.7759,26.979h.0859c23.6821,0,44.001,16.5938,48.7847,39.6328,5.9902-2.4785,12.3501-3.7334,18.9253-3.7334,15.5708,0,30.4077,7.4111,39.7959,19.8516Z"/>
    <path class="cls-1" d="m225.8861,122.9399c-.0596,0-.1201-.0049-.1807-.0166-.5435-.0986-.9033-.6201-.8042-1.1631,2.2949-12.5479,13.2178-21.6553,25.9722-21.6553,5.6392,0,11.0972,1.8018,15.6064,5.1143-.0645-1.042-.0967-2.083-.0967-3.1143,0-19.7031,11.5859-37.8096,29.5166-46.1284.4995-.2305,1.0952-.0151,1.3281.4863.2324.501.0146,1.0957-.4863,1.3281-17.2271,7.9917-28.3584,25.3862-28.3584,44.314,0,1.7373.0957,3.5049.2842,5.2529.0444.4102-.168.8057-.5347.9961-.3662.1885-.8125.1338-1.1216-.1396-4.4575-3.9395-10.1885-6.1094-16.1377-6.1094-11.7886,0-21.8838,8.417-24.0044,20.0146-.0884.4824-.5093.8203-.9829.8203Z"/>
  </g>
</svg>