<?xml version="1.0" encoding="UTF-8"?>
<svg id="_Слой_2" data-name="Слой 2" xmlns="http://www.w3.org/2000/svg" viewBox="0 0 268.7637 129.3999">
  <defs>
    <style>
      .cls-1 {
        fill: #b6a0e6;
      }
    </style>
  </defs>
  <g id="_Слой_1-2" data-name="Слой 1">
    <g>
      <path class="cls-1" d="m236.4951,48.6333c-.0776,0-.1567-.0088-.2358-.0278-1.8896-.4561-3.8315-.7754-5.7725-.9492-.2686-.0239-.5161-.1558-.6865-.3652-.1699-.209-.2485-.4785-.2173-.7461.1748-1.5039.2632-3.0498.2632-4.5952,0-.418-.0063-.8345-.019-1.2495-.0171-.5518.4165-1.0132.9688-1.0303.5288-.0469,1.0132.4165,1.0303.9688.0137.4355.02.8726.02,1.311,0,1.2788-.0576,2.5586-.1724,3.8174,1.7012.1943,3.3975.4941,5.0552.894.5366.1299.8667.6699.7373,1.207-.1108.4575-.52.7651-.9712.7651Z"/>
      <path class="cls-1" d="m228.4829,29.2319c-.4111,0-.7959-.2554-.9419-.6646-1.3882-3.8931-3.3726-7.5415-5.8979-10.8433-.3354-.4385-.252-1.0664.187-1.4019.439-.335,1.0669-.2515,1.4019.187,2.6514,3.4668,4.7349,7.2974,6.1929,11.3862.1855.52-.0859,1.0923-.606,1.2778-.1108.0396-.2246.0586-.3359.0586Zm-15.1836-19.8687c-.1978,0-.3975-.0586-.5718-.1802-3.4058-2.3804-7.1357-4.2046-11.0869-5.4224-.5278-.1626-.8237-.7222-.6611-1.25.1621-.5278.7222-.8247,1.25-.6611,4.1499,1.2788,8.0674,3.1948,11.6436,5.6938.4526.3164.5635.9399.2471,1.3926-.1948.2783-.5054.4272-.8208.4272Zm-36.3643-5.2534c-.418,0-.8076-.2642-.9478-.6821-.1758-.5234.106-1.0908.6294-1.2661C180.731.7803,185.0317.0537,189.3999.0029c.5386-.0239,1.0054.436,1.0117.9883s-.436,1.0054-.9883,1.0117c-4.1592.0483-8.2539.7397-12.1699,2.0547-.1055.0352-.2129.0522-.3184.0522Z"/>
      <path class="cls-1" d="m165.0649,18.3906c-.3037,0-.6035-.1377-.8003-.3989-1.1689-1.5547-2.4624-3.0371-3.8447-4.4062-.1899-.188-.2964-.4438-.2964-.7104,0-.2671.1069-.5229.2964-.7104,1.4531-1.439,3.0215-2.7822,4.6616-3.9927.4448-.3281,1.0703-.2334,1.3984.2109.3276.4443.2334,1.0703-.2109,1.3984-1.2959.9565-2.5454,2.0005-3.7246,3.1113,1.1826,1.2295,2.2959,2.5371,3.3188,3.897.332.4414.2432,1.0684-.1982,1.4004-.1802.1353-.3911.2007-.6001.2007Z"/>
      <path class="cls-1" d="m172.1416,33.3901c-.4517,0-.8613-.3081-.9712-.7666-.6328-2.6343-1.5415-5.2148-2.7012-7.6694-.2358-.4995-.022-1.0957.4771-1.3315.501-.2349,1.0957-.022,1.3315.4771,1.2183,2.5786,2.1729,5.2896,2.8369,8.0571.1289.5371-.2017,1.0767-.7388,1.2056-.0786.019-.1567.0278-.2344.0278Z"/>
      <path class="cls-1" d="m178.9189,48.6333c-.0776,0-.1567-.0088-.2358-.0278-1.8896-.4561-3.8315-.7754-5.7725-.9492-.2686-.0239-.5161-.1558-.6865-.3652-.1699-.209-.2485-.4785-.2173-.7461.1748-1.5039.2632-3.0498.2632-4.5952,0-.4185-.0068-.835-.019-1.2505-.0166-.5518.4175-1.0127.9697-1.0293.5684-.0278,1.0127.418,1.0293.9697.0132.4351.02.8721.02,1.3101,0,1.2788-.0576,2.5586-.1724,3.8174,1.7012.1943,3.3975.4941,5.0552.894.5366.1299.8667.6699.7373,1.207-.1108.4575-.52.7651-.9712.7651Z"/>
      <path class="cls-1" d="m187.2622,125.2466c-.3696,0-.7251-.2056-.8989-.5596-.2432-.4961-.0381-1.0952.4575-1.3384,3.6665-1.7974,7.0312-4.1416,10.001-6.9683.3999-.3809,1.0332-.3647,1.4136.0347.3809.3999.3652,1.0332-.0347,1.4136-3.1177,2.9673-6.6499,5.4287-10.499,7.3159-.1421.0693-.292.1021-.4395.1021Zm17.8892-17.0269c-.1636,0-.3301-.04-.4834-.125-.4829-.2676-.6582-.876-.3906-1.3594,1.9844-3.584,3.3965-7.4326,4.1982-11.4395.1089-.5415.6333-.8945,1.1768-.7842.5415.1084.8926.6353.7842,1.1768-.8418,4.2085-2.3252,8.2515-4.4092,12.0156-.1826.3296-.5239.5156-.876.5156Zm4.8594-24.2065c-.5039,0-.9375-.3799-.9927-.8926-.4395-4.0693-1.5005-8.0293-3.1533-11.7695-.2231-.5054.0054-1.0957.5103-1.3188.5034-.2241,1.0952.0044,1.3188.5103,1.7363,3.9292,2.8506,8.0889,3.3125,12.3633.0596.5493-.3379,1.0425-.8867,1.1016-.0366.0039-.0728.0059-.1089.0059Zm-9.9634-22.5898c-.2773,0-.5537-.1147-.7515-.3394-2.7061-3.0762-5.8501-5.7104-9.3447-7.8296-.4722-.2861-.623-.9014-.3364-1.3735s.9009-.623,1.3735-.3364c3.6685,2.2241,6.9688,4.9893,9.8096,8.2183.3647.4146.3242,1.0464-.0903,1.4116-.1899.167-.4258.249-.6602.249Z"/>
      <path class="cls-1" d="m169.3003,129.3999c-.5522,0-1-.4478-1-1s.4478-1,1-1c1.9526,0,3.917-.1431,5.8374-.4253.5488-.0786,1.0552.2979,1.1348.8438.0166.1113.0137.2207-.0054.3252.0215.082.0332.168.0332.2563"/>
      <path class="cls-1" d="m220.7573,129.3999h-11.3643c-.5522,0-1-.4478-1-1s.4478-1,1-1h11.3643c.5522,0,1,.4478,1,1s-.4478,1-1,1Zm-22.7285,0h-11.3643c-.5522,0-1-.4478-1-1s.4478-1,1-1h11.3643c.5522,0,1,.4478,1,1s-.4478,1-1,1Zm34.0757-.3325c-.4956,0-.9258-.3682-.9902-.873-.0703-.5479.3169-1.0488.8647-1.1187,3.6719-.4702,7.2573-1.4507,10.6562-2.9155.5063-.2192,1.0952.0156,1.314.5229.2183.5068-.0156,1.0952-.5229,1.314-3.5703,1.5381-7.3359,2.5688-11.1934,3.062-.043.0059-.0859.0083-.1284.0083Zm20.6069-8.8687c-.29,0-.5776-.1255-.7754-.3682-.3491-.4277-.2852-1.0576.1431-1.4067,2.8701-2.3408,5.4028-5.0635,7.5269-8.0933.3169-.4521.9409-.562,1.3931-.2446.4521.3169.5615.9409.2446,1.3931-2.2295,3.1802-4.8877,6.0381-7.9009,8.4946-.1855.1514-.4092.2251-.6313.2251Zm12.8706-18.374c-.1084,0-.2192-.0181-.3276-.0557-.5215-.1807-.7979-.7505-.6172-1.2725,1.2085-3.4878,1.9248-7.1343,2.1279-10.8379.0303-.5513.5024-.9771,1.0532-.9438.5518.0303.9741.502.9438,1.0532-.2134,3.8896-.9658,7.7197-2.2354,11.3838-.1431.4131-.5308.6729-.9448.6729Zm1.2432-22.3989c-.457,0-.8696-.3154-.9746-.7798-.8135-3.606-2.1289-7.083-3.9097-10.334-.2656-.4844-.0879-1.0923.3965-1.3574.4839-.2646,1.0928-.0879,1.3574.3965,1.8706,3.415,3.2524,7.0669,4.1069,10.8545.1216.5391-.2168,1.0742-.7554,1.1958-.0742.0166-.1484.0244-.2212.0244Zm-10.7661-19.6836c-.2588,0-.5171-.0996-.7129-.2988-2.6001-2.644-5.5469-4.9116-8.7578-6.7402-.4795-.2734-.647-.8843-.374-1.3643.2734-.4805.8838-.6475,1.3643-.374,3.3706,1.9204,6.4639,4.3008,9.1934,7.0762.3872.3936.3818,1.0269-.0117,1.4141-.1948.1914-.4482.2871-.7012.2871Z"/>
    </g>
    <path class="cls-1" d="m169.3003,129.3999H42C18.8413,129.3999,0,110.5542,0,87.3896s18.8413-42,42-42c4.3955,0,8.7017.6738,12.8389,2.0063-1.8379-3.4893-2.7988-7.3643-2.7988-11.356,0-13.4932,10.9771-24.4702,24.4702-24.4702,7.6309,0,14.7705,3.5483,19.4043,9.5679C103.3979,8.0581,117.2021,0,132.3198,0c11.1108,0,21.5898,4.3203,29.5073,12.1646,8.0239,7.9497,12.4429,18.5273,12.4429,29.7852,0,1.2788-.0581,2.5591-.1724,3.8174,20.915,2.3945,37.1523,20.5049,37.1523,41.6729,0,23.1367-18.8184,41.96-41.9497,41.96ZM42,47.3896c-22.0562,0-40,17.9438-40,40s17.9438,40.0103,40,40.0103h127.3003c22.0283,0,39.9497-17.9258,39.9497-39.96,0-20.4814-15.9619-37.9565-36.3394-39.7837-.2686-.0244-.5161-.1558-.6865-.3652-.1699-.209-.2485-.4785-.2173-.7461.1748-1.5039.2632-3.0498.2632-4.5952,0-10.7197-4.2085-20.7935-11.8501-28.3643-7.541-7.4712-17.52-11.5854-28.1001-11.5854-14.9058,0-28.4717,8.228-35.4038,21.4736-.1636.3125-.48.5156-.832.5347-.3452.0176-.688-.1484-.8848-.4414-4.1992-6.2598-11.186-9.9971-18.689-9.9971-12.3901,0-22.4702,10.0801-22.4702,22.4702,0,4.5513,1.3604,8.937,3.9341,12.6836.2495.3633.2319.8467-.043,1.1904-.2749.3442-.7422.4688-1.1519.3047-4.708-1.877-9.6807-2.8291-14.7793-2.8291Z"/>
  </g>
</svg>