<?xml version="1.0" encoding="UTF-8"?>
<svg id="_Слой_1" data-name="Слой 1" xmlns="http://www.w3.org/2000/svg" viewBox="0 0 396.28 560.03">
  <defs>
    <style>
      .cls-1 {
        stroke: #dcc5e1;
        stroke-width: 3.4px;
      }

      .cls-1, .cls-2, .cls-3, .cls-4, .cls-5, .cls-6, .cls-7, .cls-8, .cls-9, .cls-10 {
        fill: none;
        stroke-linecap: round;
        stroke-linejoin: round;
      }

      .cls-1, .cls-10 {
        stroke-dasharray: 0 0 0 0 0 0 .5 7 3 7 4.3 7;
      }

      .cls-2 {
        stroke-width: 4.8px;
      }

      .cls-2, .cls-3, .cls-4, .cls-5, .cls-6, .cls-7, .cls-8, .cls-9, .cls-10 {
        stroke: #b8a0cc;
      }

      .cls-3, .cls-10 {
        stroke-width: 3.7px;
      }

      .cls-4 {
        stroke-dasharray: 0 0 0 0 0 0 1.91 6.7 7.66 6.7 11.49 6.22;
      }

      .cls-4, .cls-5, .cls-6, .cls-7, .cls-8, .cls-9 {
        stroke-width: 4.6px;
      }

      .cls-11 {
        fill: #b8a0cc;
      }

      .cls-6 {
        stroke-dasharray: 0 0 0 0 1.1 .96 1.65 .89;
      }

      .cls-12 {
        fill: #dcc5e1;
      }

      .cls-7 {
        stroke-dasharray: 0 0 0 0 7.66 6.7 11.49 6.22;
      }

      .cls-8 {
        stroke-dasharray: 0 0 0 0 0 0 2.08 7.3 8.34 7.3 12.51 6.77;
      }

      .cls-9 {
        stroke-dasharray: 0 0 0 0 8.34 7.3 12.51 6.77;
      }
    </style>
  </defs>
  <line class="cls-3" x1="293.81" y1="260.02" x2="289.54" y2="266.93"/>
  <path class="cls-3" d="m229.42,227.66c-44.17-9.58-92.84-5.3-130.54,19.62-26.02,17.2-45.7,43.78-54.57,73.68,30.23,5.77,59.08,18.7,83.5,37.43,9.86-21.02,23.31-40.34,39.61-56.88,30.08-30.54,73.93-51.81,115.61-41.84-11.98-16.31-33.83-27.73-53.6-32.02Z"/>
  <path class="cls-3" d="m352.73,303.94c28.29,35.25,46.19,80.71,40.72,125.57-3.78,30.96-18.77,60.44-41.57,81.72-18.66-24.48-43.1-44.51-70.77-58,14.4-18.21,25.69-38.87,33.21-60.83,13.9-40.55,13.35-89.28-14.18-122.13,19.94,3.44,39.92,17.89,52.58,33.67Z"/>
  <path class="cls-3" d="m271.3,447.82c68.69-81.71,30.64-160.85,20.84-178.19-1.27-2.24-3.59-3.68-6.16-3.81-19.89-1.03-107.7.26-150.15,98.2h0c22.42,8.83,46.53,21.08,70.5,35.91,24.71,15.29,46.77,31.29,65.01,47.92"/>
  <path class="cls-3" d="m89.6,531.91c-5.58,9.02-4.27,19.94,2.92,24.39,7.2,4.45,17.55.75,23.13-8.27l90.76-146.72"/>
  <path class="cls-11" d="m100.33,225.96c-.75,0-1.46-.42-1.81-1.14l-2.54-5.32c-.47-1-.05-2.19.94-2.67,1-.47,2.19-.05,2.67.94l2.54,5.32c.47,1,.05,2.19-.94,2.67-.28.13-.57.19-.86.19Zm-5.29-11.08c-.75,0-1.46-.42-1.81-1.14l-.85-1.77c-.47-1-.05-2.19.94-2.67,1-.47,2.19-.05,2.67.94l.85,1.77c.47,1,.05,2.19-.94,2.67-.28.13-.57.19-.86.19Zm-3.59-7.54c-.75,0-1.46-.42-1.81-1.14l-5.08-10.64c-.48-1-.05-2.19.94-2.67,1-.48,2.19-.05,2.67.94l5.08,10.64c.48,1,.05,2.19-.94,2.67-.28.13-.57.2-.86.2Zm-7.82-16.4c-.75,0-1.46-.42-1.81-1.14l-2.54-5.32c-.48-1-.05-2.19.94-2.67,1-.48,2.19-.05,2.67.94l2.54,5.32c.48,1,.05,2.19-.94,2.67-.28.13-.57.2-.86.2Zm-5.29-11.08c-.75,0-1.46-.42-1.81-1.14l-.85-1.77c-.47-1-.05-2.19.94-2.67,1-.47,2.19-.05,2.67.94l.85,1.77c.47,1,.05,2.19-.94,2.67-.28.13-.57.19-.86.19Zm-3.59-7.54c-.75,0-1.46-.42-1.81-1.14l-5.08-10.64c-.48-1-.05-2.19.94-2.67,1-.48,2.19-.05,2.67.94l5.08,10.64c.48,1,.05,2.19-.94,2.67-.28.13-.57.2-.86.2Zm-7.82-16.4c-.75,0-1.46-.42-1.81-1.14l-2.54-5.32c-.48-1-.05-2.19.94-2.67,1-.48,2.19-.05,2.67.94l2.54,5.32c.48,1,.05,2.19-.94,2.67-.28.13-.57.2-.86.2Z"/>
  <path class="cls-11" d="m319.53,274.53c-.75,0-1.46-.42-1.81-1.14l-5.08-10.64c-.48-1-.05-2.19.94-2.67,1-.48,2.19-.05,2.67.94l5.08,10.64c.48,1,.05,2.19-.94,2.67-.28.13-.57.2-.86.2Zm-7.83-16.4c-.75,0-1.46-.42-1.81-1.14l-2.54-5.32c-.47-1-.05-2.19.94-2.67,1-.47,2.19-.05,2.67.94l2.54,5.32c.47,1,.05,2.19-.94,2.67-.28.13-.57.19-.86.19Zm-5.29-11.08c-.75,0-1.46-.42-1.81-1.14l-.85-1.77c-.47-1-.05-2.19.94-2.67,1-.47,2.19-.05,2.67.94l.85,1.77c.47,1,.05,2.19-.94,2.67-.28.13-.57.19-.86.19Zm-3.59-7.54c-.75,0-1.46-.42-1.81-1.14l-5.08-10.64c-.48-1-.05-2.19.94-2.67,1-.48,2.19-.05,2.67.94l5.08,10.64c.48,1,.05,2.19-.94,2.67-.28.13-.57.2-.86.2Zm-7.82-16.4c-.75,0-1.46-.42-1.81-1.14l-2.54-5.32c-.48-1-.05-2.19.94-2.67,1-.48,2.19-.05,2.67.94l2.54,5.32c.48,1,.05,2.19-.94,2.67-.28.13-.57.2-.86.2Zm-5.29-11.08c-.75,0-1.46-.42-1.81-1.14l-.85-1.77c-.47-1-.05-2.19.94-2.67,1-.47,2.19-.05,2.67.94l.85,1.77c.47,1,.05,2.19-.94,2.67-.28.13-.57.19-.86.19Zm-3.59-7.54c-.75,0-1.46-.42-1.81-1.14l-5.08-10.64c-.48-1-.05-2.19.94-2.67,1-.48,2.19-.05,2.67.94l5.08,10.64c.48,1,.05,2.19-.94,2.67-.28.13-.57.2-.86.2Zm-7.82-16.4c-.75,0-1.46-.42-1.81-1.14l-2.54-5.32c-.48-1-.05-2.19.94-2.67,1-.48,2.19-.05,2.67.94l2.54,5.32c.48,1,.05,2.19-.94,2.67-.28.13-.57.2-.86.2Zm-5.29-11.08c-.75,0-1.46-.42-1.81-1.14l-.85-1.77c-.47-1-.05-2.19.94-2.67,1-.47,2.19-.05,2.67.94l.85,1.77c.47,1,.05,2.19-.94,2.67-.28.13-.57.19-.86.19Zm-3.59-7.54c-.75,0-1.46-.42-1.81-1.14l-5.08-10.64c-.48-1-.05-2.19.94-2.67,1-.48,2.19-.05,2.67.94l5.08,10.64c.48,1,.05,2.19-.94,2.67-.28.13-.57.2-.86.2Zm-7.82-16.4c-.75,0-1.46-.42-1.81-1.14l-2.54-5.32c-.47-1-.05-2.19.94-2.67,1-.47,2.19-.05,2.67.94l2.54,5.32c.47,1,.05,2.19-.94,2.67-.28.13-.57.19-.86.19Z"/>
  <path class="cls-11" d="m284.14,252.01c-.75,0-1.46-.42-1.81-1.14l-2.54-5.32c-.47-1-.05-2.19.94-2.67,1-.47,2.19-.05,2.67.94l2.54,5.32c.47,1,.05,2.19-.94,2.67-.28.13-.57.19-.86.19Zm-5.29-11.08c-.75,0-1.46-.42-1.81-1.14l-.85-1.77c-.48-1-.05-2.19.94-2.67.99-.48,2.19-.05,2.67.94l.85,1.77c.48,1,.05,2.19-.94,2.67-.28.13-.57.2-.86.2Zm-3.6-7.54c-.75,0-1.46-.42-1.81-1.14l-5.08-10.64c-.47-1-.05-2.19.94-2.67,1-.47,2.19-.05,2.67.94l5.08,10.64c.48,1,.05,2.19-.94,2.67-.28.13-.57.19-.86.19Zm-7.82-16.4c-.75,0-1.46-.42-1.81-1.14l-2.54-5.32c-.47-1-.05-2.19.94-2.67,1-.47,2.19-.05,2.67.94l2.54,5.32c.47,1,.05,2.19-.94,2.67-.28.13-.57.19-.86.19Zm-5.29-11.08c-.75,0-1.46-.42-1.81-1.14l-.85-1.77c-.47-1-.05-2.19.94-2.67,1-.47,2.19-.05,2.67.94l.85,1.77c.47,1,.05,2.19-.94,2.67-.28.13-.57.19-.86.19Zm-3.59-7.54c-.75,0-1.46-.42-1.81-1.14l-5.08-10.64c-.48-1-.05-2.19.94-2.67,1-.48,2.19-.05,2.67.94l5.08,10.64c.48,1,.05,2.19-.94,2.67-.28.13-.57.2-.86.2Zm-7.82-16.4c-.75,0-1.46-.42-1.81-1.14l-2.54-5.32c-.48-1-.05-2.19.94-2.67,1-.48,2.19-.05,2.67.94l2.54,5.32c.48,1,.05,2.19-.94,2.67-.28.13-.57.2-.86.2Zm-5.29-11.08c-.75,0-1.46-.42-1.81-1.14l-.85-1.77c-.47-1-.05-2.19.94-2.67,1-.47,2.19-.05,2.67.94l.85,1.77c.47,1,.05,2.19-.94,2.67-.28.13-.57.19-.86.19Zm-3.59-7.54c-.75,0-1.46-.42-1.81-1.14l-5.08-10.64c-.48-1-.05-2.19.94-2.67,1-.48,2.19-.05,2.67.94l5.08,10.64c.48,1,.05,2.19-.94,2.67-.28.13-.57.2-.86.2Zm-7.82-16.4c-.75,0-1.46-.42-1.81-1.14l-2.54-5.32c-.48-1-.05-2.19.94-2.67,1-.47,2.19-.05,2.67.94l2.54,5.32c.48,1,.05,2.19-.94,2.67-.28.13-.57.2-.86.2Z"/>
  <path class="cls-11" d="m247.5,226.29c-.75,0-1.46-.42-1.81-1.14l-2.54-5.32c-.47-1-.05-2.19.94-2.67,1-.47,2.19-.05,2.67.94l2.54,5.32c.47,1,.05,2.19-.94,2.67-.28.13-.57.19-.86.19Zm-5.29-11.08c-.75,0-1.46-.42-1.81-1.14l-.85-1.77c-.47-1-.05-2.19.94-2.67,1-.47,2.19-.05,2.67.94l.85,1.77c.47,1,.05,2.19-.94,2.67-.28.13-.57.19-.86.19Zm-3.59-7.54c-.75,0-1.46-.42-1.81-1.14l-5.08-10.64c-.48-1-.05-2.19.94-2.67,1-.48,2.19-.05,2.67.94l5.08,10.64c.48,1,.05,2.19-.94,2.67-.28.13-.57.2-.86.2Zm-7.82-16.4c-.75,0-1.46-.42-1.81-1.14l-2.54-5.32c-.48-1-.05-2.19.94-2.67,1-.48,2.19-.05,2.67.94l2.54,5.32c.48,1,.05,2.19-.94,2.67-.28.13-.57.2-.86.2Zm-5.29-11.08c-.75,0-1.46-.42-1.81-1.14l-.85-1.77c-.47-1-.05-2.19.94-2.67,1-.47,2.19-.05,2.67.94l.85,1.77c.47,1,.05,2.19-.94,2.67-.28.13-.57.19-.86.19Zm-3.59-7.54c-.75,0-1.46-.42-1.81-1.14l-5.08-10.64c-.48-1-.05-2.19.94-2.67,1-.48,2.19-.05,2.67.94l5.08,10.64c.48,1,.05,2.19-.94,2.67-.28.13-.57.2-.86.2Zm-7.82-16.4c-.75,0-1.46-.42-1.81-1.14l-2.54-5.32c-.48-1-.05-2.19.94-2.67,1-.48,2.19-.05,2.67.94l2.54,5.32c.48,1,.05,2.19-.94,2.67-.28.13-.57.2-.86.2Z"/>
  <path class="cls-11" d="m217.59,214.7c-.75,0-1.46-.42-1.81-1.14l-5.08-10.64c-.47-1-.05-2.19.94-2.67,1-.48,2.19-.05,2.67.94l5.08,10.64c.48,1,.05,2.19-.94,2.67-.28.13-.57.2-.86.2Zm-7.82-16.4c-.75,0-1.46-.42-1.81-1.14l-2.54-5.32c-.48-1-.05-2.19.94-2.67,1-.48,2.19-.05,2.67.94l2.54,5.32c.48,1,.05,2.19-.94,2.67-.28.13-.57.2-.86.2Zm-5.29-11.08c-.75,0-1.46-.42-1.81-1.14l-.85-1.77c-.47-1-.05-2.19.94-2.67,1-.47,2.19-.05,2.67.94l.85,1.77c.47,1,.05,2.19-.94,2.67-.28.13-.57.19-.86.19Zm-3.59-7.54c-.75,0-1.46-.42-1.81-1.14l-5.08-10.64c-.48-1-.05-2.19.94-2.67,1-.47,2.19-.05,2.67.94l5.08,10.64c.47,1,.05,2.19-.94,2.67-.28.13-.57.19-.86.19Zm-7.82-16.4c-.75,0-1.46-.42-1.81-1.14l-2.54-5.32c-.47-1-.05-2.19.94-2.67,1-.47,2.19-.05,2.67.94l2.54,5.32c.47,1,.05,2.19-.94,2.67-.28.13-.57.19-.86.19Z"/>
  <path class="cls-11" d="m195.57,219.62c-.75,0-1.46-.42-1.81-1.14l-.85-1.77c-.47-1-.05-2.19.94-2.67,1-.47,2.19-.05,2.67.94l.85,1.77c.47,1,.05,2.19-.94,2.67-.28.13-.57.19-.86.19Zm-3.59-7.54c-.75,0-1.46-.42-1.81-1.14l-5.08-10.64c-.48-1-.05-2.19.94-2.67s2.19-.05,2.67.94l5.08,10.64c.48,1,.05,2.19-.94,2.67-.28.13-.57.2-.86.2Zm-7.82-16.4c-.75,0-1.46-.42-1.81-1.14l-2.54-5.32c-.47-1-.05-2.19.94-2.67,1-.47,2.19-.05,2.67.94l2.54,5.32c.47,1,.05,2.19-.94,2.67-.28.13-.57.19-.86.19Zm-5.29-11.08c-.75,0-1.46-.42-1.81-1.14l-.85-1.77c-.48-1-.05-2.19.94-2.67.99-.48,2.19-.05,2.67.94l.85,1.77c.48,1,.05,2.19-.94,2.67-.28.13-.57.2-.86.2Zm-3.6-7.54c-.75,0-1.46-.42-1.81-1.14l-5.08-10.64c-.48-1-.05-2.19.94-2.67,1-.48,2.19-.05,2.67.94l5.08,10.64c.48,1,.05,2.19-.94,2.67-.28.13-.57.2-.86.2Zm-7.82-16.4c-.75,0-1.46-.42-1.81-1.14l-2.54-5.32c-.48-1-.05-2.19.94-2.67,1-.47,2.19-.05,2.67.94l2.54,5.32c.47,1,.05,2.19-.94,2.67-.28.13-.57.19-.86.19Z"/>
  <path class="cls-11" d="m169.71,217.86c-.75,0-1.46-.42-1.81-1.14l-5.08-10.64c-.48-1-.05-2.19.94-2.67,1-.48,2.19-.05,2.67.94l5.08,10.64c.48,1,.05,2.19-.94,2.67-.28.13-.57.2-.86.2Zm-7.82-16.4c-.75,0-1.46-.42-1.81-1.14l-2.54-5.32c-.48-1-.05-2.19.94-2.67s2.19-.05,2.67.94l2.54,5.32c.48,1,.05,2.19-.94,2.67-.28.13-.57.2-.86.2Zm-5.29-11.08c-.75,0-1.46-.42-1.81-1.14l-.85-1.77c-.48-1-.05-2.19.94-2.67,1-.47,2.19-.05,2.67.94l.85,1.77c.48,1,.05,2.19-.94,2.67-.28.13-.57.19-.86.19Zm-3.59-7.54c-.75,0-1.46-.42-1.81-1.14l-5.08-10.64c-.48-1-.05-2.19.94-2.67,1-.48,2.19-.05,2.67.94l5.08,10.64c.48,1,.05,2.19-.94,2.67-.28.13-.57.2-.86.2Zm-7.82-16.4c-.75,0-1.46-.42-1.81-1.14l-2.54-5.32c-.48-1-.05-2.19.94-2.67,1-.47,2.19-.05,2.67.94l2.54,5.32c.48,1,.05,2.19-.94,2.67-.28.13-.57.2-.86.2Zm-5.29-11.08c-.75,0-1.46-.42-1.81-1.14l-.85-1.77c-.48-1-.05-2.19.94-2.67,1-.48,2.19-.05,2.67.94l.85,1.77c.48,1,.05,2.19-.94,2.67-.28.13-.57.2-.86.2Z"/>
  <path class="cls-11" d="m143.38,212.88c-.75,0-1.46-.42-1.81-1.14l-2.54-5.32c-.48-1-.05-2.19.94-2.67,1-.48,2.19-.05,2.67.94l2.54,5.32c.48,1,.05,2.19-.94,2.67-.28.13-.57.2-.86.2Zm-5.29-11.08c-.75,0-1.46-.42-1.81-1.14l-.85-1.77c-.48-1-.05-2.19.94-2.67,1-.47,2.19-.05,2.67.94l.85,1.77c.48,1,.05,2.19-.94,2.67-.28.13-.57.19-.86.19Zm-3.6-7.54c-.75,0-1.46-.42-1.81-1.14l-5.08-10.64c-.48-1-.05-2.19.94-2.67,1-.48,2.19-.05,2.67.94l5.08,10.64c.48,1,.05,2.19-.94,2.67-.28.13-.57.2-.86.2Zm-7.82-16.4c-.75,0-1.46-.42-1.81-1.14l-2.54-5.32c-.48-1-.05-2.19.94-2.67,1-.47,2.19-.05,2.67.94l2.54,5.32c.48,1,.05,2.19-.94,2.67-.28.13-.57.2-.86.2Zm-5.29-11.08c-.75,0-1.46-.42-1.81-1.14l-.85-1.77c-.48-1-.05-2.19.94-2.67,1-.47,2.19-.05,2.67.94l.85,1.77c.48,1,.05,2.19-.94,2.67-.28.13-.57.19-.86.19Zm-3.59-7.54c-.75,0-1.46-.42-1.81-1.14l-5.08-10.64c-.48-1-.05-2.19.94-2.67,1-.47,2.19-.05,2.67.94l5.08,10.64c.48,1,.05,2.19-.94,2.67-.28.13-.57.2-.86.2Z"/>
  <path class="cls-11" d="m125.7,226.9c-.75,0-1.46-.42-1.81-1.14l-5.08-10.64c-.48-1-.05-2.19.94-2.67,1-.48,2.19-.05,2.67.94l5.08,10.64c.48,1,.05,2.19-.94,2.67-.28.13-.57.2-.86.2Zm-7.82-16.4c-.75,0-1.46-.42-1.81-1.14l-2.54-5.32c-.48-1-.05-2.19.94-2.67,1-.47,2.19-.05,2.67.94l2.54,5.32c.48,1,.05,2.19-.94,2.67-.28.13-.57.19-.86.19Zm-5.29-11.08c-.75,0-1.46-.42-1.81-1.14l-.85-1.77c-.48-1-.05-2.19.94-2.67,1-.47,2.19-.05,2.67.94l.85,1.77c.48,1,.05,2.19-.94,2.67-.28.13-.57.19-.86.19Zm-3.59-7.54c-.75,0-1.46-.42-1.81-1.14l-5.08-10.64c-.48-1-.05-2.19.94-2.67,1-.48,2.19-.05,2.67.94l5.08,10.64c.48,1,.05,2.19-.94,2.67-.28.13-.57.2-.86.2Zm-7.82-16.4c-.75,0-1.46-.42-1.81-1.14l-2.54-5.32c-.48-1-.05-2.19.94-2.67,1-.47,2.19-.05,2.67.94l2.54,5.32c.48,1,.05,2.19-.94,2.67-.28.13-.57.19-.86.19Zm-5.29-11.08c-.75,0-1.46-.42-1.81-1.14l-.85-1.77c-.48-1-.05-2.19.94-2.67,1-.47,2.19-.05,2.67.94l.85,1.77c.48,1,.05,2.19-.94,2.67-.28.13-.57.19-.86.19Zm-3.59-7.54c-.75,0-1.46-.42-1.81-1.14l-5.08-10.64c-.48-1-.05-2.19.94-2.67,1-.47,2.19-.05,2.67.94l5.08,10.64c.48,1,.05,2.19-.94,2.67-.28.13-.57.2-.86.2Z"/>
  <line class="cls-5" x1="206.12" y1="141.67" x2="43.93" y2="142.17"/>
  <g>
    <line class="cls-5" x1="238.2" y1="137.76" x2="237.2" y2="137.76"/>
    <line class="cls-6" x1="236.24" y1="137.77" x2="232.09" y2="137.78"/>
    <line class="cls-5" x1="231.65" y1="137.78" x2="230.65" y2="137.79"/>
  </g>
  <g>
    <path class="cls-5" d="m184.54,53.25c-11.65-23.9-35.54-39.08-63.91-39.08s-53.98,17.6-65.08,42.89c-1.03-.06-2.95.03-4,.03-27.19,0-49.24,19.17-49.24,42.82s15.65,41.2,41.63,42.25"/>
    <path class="cls-5" d="m185,52.92c5.14-1.4,10.39-2.96,16.05-2.96,30.37,0,52.35,21.77,54.99,48.32,2.67,26.89-19.45,43.54-49.91,43.38"/>
    <g>
      <path class="cls-5" d="m216.56,43.82c-.14-.3-.28-.61-.42-.91"/>
      <path class="cls-7" d="m213,36.99c-5.02-8.53-11.55-15.78-19.22-21.4"/>
      <path class="cls-4" d="m191.23,13.81c-11.09-7.38-24.33-11.51-38.73-11.51-13,0-25.06,3.64-35.43,10.01"/>
      <path class="cls-5" d="m114.44,14c-.28.19-.55.38-.82.57"/>
    </g>
    <g>
      <path class="cls-5" d="m217.03,43.47c.32-.09.64-.18.96-.28"/>
      <path class="cls-9" d="m225.03,41.3c2.62-.58,5.3-.98,8.09-.98,8.26,0,15.91,1.7,22.71,4.75"/>
      <path class="cls-8" d="m258.88,46.55c16.57,8.73,27.55,25.72,29.36,45.11,2.54,27.18-17.4,44.51-45.64,45.99"/>
      <path class="cls-5" d="m239.2,137.76c-.33,0-.67,0-1,0"/>
    </g>
  </g>
  <g>
    <line class="cls-1" x1="38.67" y1="464.13" x2="173.47" y2="464.42"/>
    <line class="cls-1" x1="38.67" y1="452.6" x2="138.85" y2="452.6"/>
    <path class="cls-12" d="m142.28,453.9c-.51,0-1.03,0-1.56-.03-.94-.03-1.67-.82-1.64-1.76.03-.94.81-1.66,1.76-1.64.82.03,1.61.03,2.39.01.01,0,.03,0,.04,0,.92,0,1.68.73,1.7,1.66.02.94-.72,1.72-1.66,1.74-.34,0-.68.01-1.03.01Zm7.93-.83c-.78,0-1.48-.54-1.66-1.32-.21-.92.37-1.83,1.28-2.03l.46-.11c.91-.22,1.83.34,2.05,1.25.22.91-.34,1.83-1.25,2.05l-.51.12c-.13.03-.25.04-.38.04Zm7-2.61c-.6,0-1.18-.32-1.49-.88-.45-.82-.16-1.86.67-2.31,1.18-.65,2.28-1.4,3.26-2.24.72-.61,1.79-.51,2.4.2.61.72.51,1.79-.2,2.4-1.16.98-2.44,1.86-3.81,2.62-.26.14-.54.21-.82.21Zm8-7.77c-.29,0-.57-.07-.84-.22-.82-.46-1.1-1.5-.64-2.32.45-.79.84-1.62,1.17-2.47.33-.88,1.32-1.31,2.19-.98.88.33,1.32,1.32.98,2.19-.39,1.01-.85,2-1.39,2.95-.31.55-.89.86-1.48.86Zm2.59-9.55h-.03c-.94-.02-1.69-.79-1.67-1.73v-.4c0-.94.76-1.74,1.7-1.74s1.7.73,1.7,1.67v.53c-.02.93-.78,1.67-1.7,1.67Zm-1.16-7.37c-.7,0-1.36-.44-1.6-1.13-.43-1.23-1.01-2.42-1.7-3.53-.5-.8-.26-1.84.54-2.34.8-.5,1.84-.26,2.34.54.83,1.32,1.51,2.73,2.03,4.2.31.88-.15,1.86-1.04,2.17-.19.07-.38.1-.57.1Zm-6.5-9.06c-.38,0-.76-.13-1.07-.38-.71-.58-1.47-1.12-2.27-1.63-.79-.5-1.03-1.55-.53-2.35.5-.79,1.55-1.03,2.35-.53.92.58,1.79,1.21,2.6,1.87.73.59.84,1.67.24,2.39-.34.41-.82.62-1.32.62Z"/>
    <path class="cls-12" d="m113.45,514.47c-.88,0-1.63-.68-1.69-1.57-.07-.94.63-1.75,1.57-1.82.9-.07,1.8-.21,2.68-.43.91-.23,1.83.33,2.06,1.24.23.91-.33,1.83-1.24,2.06-1.06.26-2.15.44-3.24.52-.04,0-.09,0-.13,0Zm9.26-3.43c-.52,0-1.04-.24-1.37-.69-.56-.76-.39-1.82.36-2.38,1.04-.77,2-1.66,2.83-2.66.6-.72,1.67-.81,2.4-.21.72.6.81,1.68.21,2.4-1.01,1.2-2.16,2.28-3.42,3.21-.3.22-.66.33-1.01.33Zm6.48-9.03c-.17,0-.34-.03-.52-.08-.89-.28-1.39-1.24-1.1-2.13.04-.14.09-.29.13-.43.26-.9,1.2-1.43,2.1-1.17.9.26,1.43,1.2,1.17,2.1-.05.18-.1.35-.16.53-.23.72-.9,1.19-1.62,1.19Zm.74-7.41c-.87,0-1.61-.66-1.69-1.54-.09-.92-.25-1.82-.47-2.69-.23-.91.32-1.84,1.23-2.07.9-.24,1.83.32,2.07,1.22.27,1.04.45,2.12.56,3.21.09.93-.6,1.76-1.53,1.85-.06,0-.11,0-.16,0Zm-3.54-9.21c-.51,0-1.01-.23-1.34-.66-.79-1.01-1.71-1.91-2.73-2.67-.76-.56-.92-1.62-.36-2.38.56-.75,1.62-.92,2.38-.36,1.27.94,2.42,2.05,3.4,3.32.58.74.44,1.81-.3,2.39-.31.24-.68.36-1.04.36Zm-9.42-5.79c-.11,0-.23-.01-.34-.03-.15-.03-.29-.06-.44-.08-.93-.16-1.55-1.04-1.39-1.96s1.04-1.55,1.96-1.39c.18.03.36.07.54.1.92.19,1.51,1.09,1.33,2.01-.16.81-.87,1.36-1.66,1.36Zm-4.05-.37h-3c-.94,0-1.7-.76-1.7-1.7s.76-1.7,1.7-1.7h3c.94,0,1.7.76,1.7,1.7s-.76,1.7-1.7,1.7Zm-10,0h-4.3c-.94,0-1.7-.76-1.7-1.7s.76-1.7,1.7-1.7h4.3c.94,0,1.7.76,1.7,1.7s-.76,1.7-1.7,1.7Zm-11.3,0h-.5c-.94,0-1.7-.76-1.7-1.7s.76-1.7,1.7-1.7h.5c.94,0,1.7.76,1.7,1.7s-.76,1.7-1.7,1.7Zm-7.5,0h-3c-.94,0-1.7-.76-1.7-1.7s.76-1.7,1.7-1.7h3c.94,0,1.7.76,1.7,1.7s-.76,1.7-1.7,1.7Zm-10,0h-4.3c-.94,0-1.7-.76-1.7-1.7s.76-1.7,1.7-1.7h4.3c.94,0,1.7.76,1.7,1.7s-.76,1.7-1.7,1.7Zm-11.3,0h-.5c-.94,0-1.7-.76-1.7-1.7s.76-1.7,1.7-1.7h.5c.94,0,1.7.76,1.7,1.7s-.76,1.7-1.7,1.7Zm-7.5,0h-3c-.94,0-1.7-.76-1.7-1.7s.76-1.7,1.7-1.7h3c.94,0,1.7.76,1.7,1.7s-.76,1.7-1.7,1.7Zm-10,0h-4.3c-.94,0-1.7-.76-1.7-1.7s.76-1.7,1.7-1.7h4.3c.94,0,1.7.76,1.7,1.7s-.76,1.7-1.7,1.7Z"/>
    <path class="cls-12" d="m183.81,519.19c-.77,0-1.46-.52-1.65-1.3-.22-.91.34-1.83,1.25-2.05,1.35-.33,2.64-.75,3.82-1.25.87-.36,1.86.04,2.23.91.37.86-.04,1.86-.9,2.23-1.35.57-2.81,1.05-4.34,1.42-.13.03-.27.05-.4.05Zm9.99-5.02c-.47,0-.94-.19-1.27-.57-.62-.7-.56-1.78.14-2.4.68-.6,1.33-1.27,1.92-1.97.61-.72,1.68-.8,2.4-.2.72.61.81,1.68.2,2.4-.7.83-1.46,1.61-2.26,2.32-.32.29-.73.43-1.13.43Zm5.77-8.07c-.23,0-.47-.05-.7-.15-.86-.39-1.24-1.39-.85-2.25l.19-.43c.37-.86,1.37-1.26,2.24-.88.86.37,1.26,1.37.88,2.24l-.21.48c-.28.63-.9,1-1.55,1Zm2.34-7.11c-.12,0-.25-.01-.38-.04-.92-.21-1.49-1.12-1.28-2.04.3-1.32.51-2.67.62-4.01.08-.94.9-1.63,1.84-1.55.94.08,1.63.9,1.55,1.84-.13,1.5-.36,3-.7,4.48-.18.79-.88,1.32-1.66,1.32Zm.4-11.22c-.82,0-1.54-.59-1.68-1.43-.15-.93-.36-1.85-.61-2.73-.26-.9.26-1.84,1.17-2.1.9-.25,1.84.26,2.1,1.17.29,1.01.52,2.06.7,3.12.15.93-.48,1.8-1.4,1.95-.09.02-.19.02-.28.02Zm-3.51-9.28c-.56,0-1.1-.27-1.43-.78l-.26-.39c-.52-.78-.32-1.83.46-2.36.78-.52,1.84-.32,2.36.46l.29.44c.51.79.28,1.84-.5,2.35-.29.18-.61.27-.92.27Zm-5-5.54c-.37,0-.75-.12-1.07-.38-1.02-.82-2.14-1.58-3.32-2.25-.82-.46-1.11-1.5-.65-2.32.46-.82,1.5-1.11,2.32-.65,1.35.76,2.62,1.62,3.79,2.56.73.59.85,1.66.26,2.39-.34.42-.83.63-1.32.63Zm-9.99-5.1c-.16,0-.32-.02-.49-.07-.9-.27-1.83-.51-2.78-.71-.92-.2-1.5-1.1-1.3-2.02.2-.92,1.1-1.5,2.02-1.3,1.03.22,2.05.48,3.03.78.9.27,1.41,1.22,1.14,2.12-.22.74-.9,1.21-1.63,1.21Zm-9.83-1.69s-.07,0-.11,0l-.49-.03c-.94-.05-1.65-.86-1.6-1.8.06-.94.86-1.63,1.8-1.6l.51.03c.94.06,1.65.87,1.59,1.81-.06.9-.81,1.59-1.69,1.59Z"/>
    <g>
      <line class="cls-2" x1="27.09" y1="460.63" x2="161.89" y2="460.92"/>
      <line class="cls-2" x1="27.09" y1="449.11" x2="127.26" y2="449.11"/>
      <path class="cls-2" d="m100.26,426.23c-1.04-9.11,7.95-21.12,22.78-21.23,19.38-.14,31.52,9.6,31.25,23.39-.22,11.13-9.24,21.32-27.02,20.72"/>
      <path class="cls-2" d="m82.57,491.39c0,9.9,8.03,17.93,17.93,17.93s17.93-8.03,17.93-17.93-6.86-17.34-16.76-17.34c-.13,0-.27,0-.41,0h1.71s-75.89,0-75.89,0"/>
      <path class="cls-2" d="m161.89,460.92c25.19,1.43,31.75,18.83,28.38,33.1-4.01,17-15.25,23.16-36.65,20.3"/>
    </g>
  </g>
  <path class="cls-10" d="m313.34,278.08c17.89,11.1,22.23,13.58,33.74,26.04,25.7,27.83,44.91,73.62,41.62,116.68-3.61,47.23-19.74,62.7-37.34,84.76"/>
  <path class="cls-10" d="m267.61,434.23c60.87-72.4,27.15-142.54,18.46-157.91-1.12-1.99-3.18-3.26-5.46-3.38-17.63-.91-95.44.23-133.05,87.02h0c19.87,7.83,41.23,18.68,62.47,31.82,21.9,13.55,41.45,27.73,57.61,42.46"/>
  <path class="cls-10" d="m271.46,252.77c-17.71-11.37-21.82-14.23-38.03-19.26-36.18-11.23-85.78-8.87-123.24,12.63-41.08,23.57-48.11,44.79-60.45,70.17"/>
</svg>