<?xml version="1.0" encoding="UTF-8"?>
<svg id="_Слой_2" data-name="Слой 2" xmlns="http://www.w3.org/2000/svg" viewBox="0 0 158.0725 169.1509">
  <defs>
    <style>
      .cls-1 {
        fill: #a78bfa;
      }
    </style>
  </defs>
  <g id="_Слой_1-2" data-name="Слой 1">
    <path class="cls-1" d="m105.7002,100.9102H33.9697C15.2388,100.9102,0,85.6714,0,66.9399c0-18.4019,14.7061-33.4331,32.9839-33.9556C33.5063,14.7065,48.5381,0,66.9399,0c13.459,0,25.5474,7.877,31.0254,20.1377,2.5264-.4897,5.124-.7378,7.7349-.7378,22.4697,0,40.75,18.2852,40.75,40.7603s-18.2803,40.75-40.75,40.75ZM66.9399,2c-17.6284,0-31.9702,14.3418-31.9702,31.9702,0,.5522-.4478,1-1,1-17.6279,0-31.9697,14.3418-31.9697,31.9697s14.3418,31.9702,31.9697,31.9702h71.7305c21.3667,0,38.75-17.3833,38.75-38.75s-17.3833-38.7603-38.75-38.7603c-2.7476,0-5.4795.2886-8.1191.8579-.4707.1016-.9473-.147-1.1333-.5913-5-11.9468-16.5825-19.6665-29.5078-19.6665Z"/>
    <path class="cls-1" d="m138.874,163.6094c-.3457,0-.6816-.1792-.8672-.5l-6.0005-10.3921c-.2759-.478-.1123-1.0898.3662-1.3662.478-.2764,1.0889-.1123,1.3662.3662l6.0005,10.3921c.2759.478.1123,1.0898-.3662,1.3662-.1572.0908-.3296.1338-.499.1338Zm-12.0005-20.7847c-.3457,0-.6816-.1792-.8672-.5l-6-10.3921c-.2759-.4785-.1123-1.0898.3662-1.3662.4766-.2769,1.0894-.1123,1.3662.3662l6,10.3921c.2759.4785.1123,1.0898-.3662,1.3662-.1572.0908-.3296.1338-.499.1338Zm-12-20.7847c-.3457,0-.6816-.1792-.8672-.5l-6-10.3921c-.2759-.4785-.1123-1.0898.3662-1.3662.4771-.2769,1.0894-.1118,1.3662.3662l6,10.3921c.2759.4785.1123,1.0898-.3662,1.3662-.1572.0908-.3296.1338-.499.1338Z"/>
    <g>
      <path class="cls-1" d="m126.8735,116.8438c-.3457,0-.6816-.1792-.8672-.5l-3-5.1958c-.2759-.478-.1123-1.0898.3662-1.3662.4771-.2769,1.0894-.1118,1.3662.3662l3,5.1958c.2759.478.1123,1.0898-.3662,1.3662-.1572.0908-.3296.1338-.499.1338Z"/>
      <path class="cls-1" d="m148.6333,154.5327c-.3457,0-.6816-.1792-.8672-.5l-5.4399-9.4224c-.2759-.4785-.1123-1.0898.3662-1.3662.4771-.2764,1.0894-.1123,1.3662.3662l5.4399,9.4224c.2759.4785.1123,1.0898-.3662,1.3662-.1577.0908-.3296.1338-.499.1338Zm-10.8799-18.8442c-.3457,0-.6816-.1792-.8672-.5l-5.4399-9.4224c-.2759-.4785-.1123-1.0898.3662-1.3662.4766-.2769,1.0894-.1118,1.3662.3662l5.4399,9.4224c.2759.4785.1123,1.0898-.3662,1.3662-.1572.0908-.3296.1338-.499.1338Z"/>
      <path class="cls-1" d="m157.0732,169.1509c-.3457,0-.6816-.1792-.8672-.5l-3-5.1963c-.2759-.4785-.1123-1.0898.3662-1.3662.479-.2773,1.0898-.1118,1.3662.3662l3,5.1963c.2759.4785.1123,1.0898-.3662,1.3662-.1577.0908-.3296.1338-.499.1338Z"/>
    </g>
    <g>
      <path class="cls-1" d="m96.8735,116.8438c-.3457,0-.6816-.1792-.8672-.5l-3-5.1958c-.2759-.478-.1123-1.0898.3662-1.3662.4775-.2769,1.0898-.1118,1.3662.3662l3,5.1958c.2759.478.1123,1.0898-.3662,1.3662-.1572.0908-.3296.1338-.499.1338Z"/>
      <path class="cls-1" d="m118.6333,154.5327c-.3457,0-.6816-.1792-.8672-.5l-5.4399-9.4224c-.2759-.4785-.1123-1.0898.3662-1.3662.4775-.2764,1.0894-.1123,1.3662.3662l5.4399,9.4224c.2759.4785.1123,1.0898-.3662,1.3662-.1577.0908-.3296.1338-.499.1338Zm-10.8799-18.8442c-.3457,0-.6816-.1792-.8672-.5l-5.4399-9.4224c-.2759-.4785-.1123-1.0898.3662-1.3662.4771-.2769,1.0894-.1118,1.3662.3662l5.4399,9.4224c.2759.4785.1123,1.0898-.3662,1.3662-.1572.0908-.3296.1338-.499.1338Z"/>
      <path class="cls-1" d="m127.0732,169.1509c-.3457,0-.6816-.1792-.8672-.5l-3-5.1963c-.2759-.4785-.1123-1.0898.3662-1.3662.479-.2773,1.0898-.1118,1.3662.3662l3,5.1963c.2759.4785.1123,1.0898-.3662,1.3662-.1577.0908-.3296.1338-.499.1338Z"/>
    </g>
    <path class="cls-1" d="m108.874,163.6094c-.3457,0-.6816-.1792-.8672-.5l-6.0005-10.3921c-.2759-.478-.1123-1.0898.3662-1.3662.4766-.2764,1.0894-.1123,1.3662.3662l6.0005,10.3921c.2759.478.1123,1.0898-.3662,1.3662-.1572.0908-.3296.1338-.499.1338Zm-12.0005-20.7847c-.3457,0-.6816-.1792-.8672-.5l-6-10.3921c-.2759-.4785-.1123-1.0898.3662-1.3662.4771-.2769,1.0894-.1123,1.3662.3662l6,10.3921c.2759.4785.1123,1.0898-.3662,1.3662-.1572.0908-.3296.1338-.499.1338Zm-12-20.7847c-.3457,0-.6816-.1792-.8672-.5l-6-10.3921c-.2759-.4785-.1123-1.0898.3662-1.3662.4775-.2769,1.0898-.1118,1.3662.3662l6,10.3921c.2759.4785.1123,1.0898-.3662,1.3662-.1572.0908-.3296.1338-.499.1338Z"/>
    <g>
      <path class="cls-1" d="m66.8735,116.8438c-.3457,0-.6816-.1792-.8672-.5l-3-5.1958c-.2759-.478-.1123-1.0898.3662-1.3662.4775-.2769,1.0898-.1118,1.3662.3662l3,5.1958c.2759.478.1123,1.0898-.3662,1.3662-.1572.0908-.3296.1338-.499.1338Z"/>
      <path class="cls-1" d="m88.6333,154.5327c-.3457,0-.6816-.1792-.8672-.5l-5.4399-9.4224c-.2759-.4785-.1123-1.0898.3662-1.3662.4775-.2764,1.0889-.1123,1.3662.3662l5.4399,9.4224c.2759.4785.1123,1.0898-.3662,1.3662-.1577.0908-.3296.1338-.499.1338Zm-10.8799-18.8442c-.3457,0-.6816-.1792-.8672-.5l-5.4399-9.4224c-.2759-.4785-.1123-1.0898.3662-1.3662.4775-.2769,1.0898-.1118,1.3662.3662l5.4399,9.4224c.2759.4785.1123,1.0898-.3662,1.3662-.1572.0908-.3296.1338-.499.1338Z"/>
      <path class="cls-1" d="m97.0732,169.1509c-.3457,0-.6816-.1792-.8672-.5l-3-5.1963c-.2759-.4785-.1123-1.0898.3662-1.3662.4795-.2773,1.0894-.1118,1.3662.3662l3,5.1963c.2759.4785.1123,1.0898-.3662,1.3662-.1577.0908-.3296.1338-.499.1338Z"/>
    </g>
    <path class="cls-1" d="m78.874,163.6094c-.3457,0-.6816-.1792-.8672-.5l-6.0005-10.3921c-.2759-.478-.1123-1.0898.3662-1.3662.4771-.2764,1.0894-.1123,1.3662.3662l6.0005,10.3921c.2759.478.1123,1.0898-.3662,1.3662-.1572.0908-.3296.1338-.499.1338Zm-12.0005-20.7847c-.3457,0-.6816-.1792-.8672-.5l-6-10.3921c-.2759-.4785-.1123-1.0898.3662-1.3662.4775-.2769,1.0894-.1123,1.3662.3662l6,10.3921c.2759.4785.1123,1.0898-.3662,1.3662-.1572.0908-.3296.1338-.499.1338Zm-12-20.7847c-.3457,0-.6816-.1792-.8672-.5l-6-10.3921c-.2759-.4785-.1123-1.0898.3662-1.3662.478-.2769,1.0898-.1118,1.3662.3662l6,10.3921c.2759.4785.1123,1.0898-.3662,1.3662-.1572.0908-.3296.1338-.499.1338Z"/>
    <g>
      <path class="cls-1" d="m36.8735,116.8438c-.3457,0-.6816-.1792-.8672-.5l-3-5.1958c-.2759-.478-.1123-1.0898.3662-1.3662.478-.2769,1.0894-.1118,1.3662.3662l3,5.1958c.2759.478.1123,1.0898-.3662,1.3662-.1572.0908-.3296.1338-.499.1338Z"/>
      <path class="cls-1" d="m58.6333,154.5327c-.3457,0-.6816-.1792-.8672-.5l-5.4399-9.4224c-.2759-.4785-.1123-1.0898.3662-1.3662.478-.2764,1.0889-.1123,1.3662.3662l5.4399,9.4224c.2759.4785.1123,1.0898-.3662,1.3662-.1577.0908-.3296.1338-.499.1338Zm-10.8799-18.8442c-.3457,0-.6816-.1792-.8672-.5l-5.4399-9.4224c-.2759-.4785-.1123-1.0898.3662-1.3662.4775-.2769,1.0898-.1118,1.3662.3662l5.4399,9.4224c.2759.4785.1123,1.0898-.3662,1.3662-.1572.0908-.3296.1338-.499.1338Z"/>
      <path class="cls-1" d="m67.0732,169.1509c-.3457,0-.6816-.1792-.8672-.5l-3-5.1963c-.2759-.4785-.1123-1.0898.3662-1.3662.4785-.2773,1.0894-.1118,1.3662.3662l3,5.1963c.2759.4785.1123,1.0898-.3662,1.3662-.1577.0908-.3296.1338-.499.1338Z"/>
    </g>
  </g>
</svg>