<?xml version="1.0" encoding="UTF-8"?>
<svg id="_Слой_2" data-name="Слой 2" xmlns="http://www.w3.org/2000/svg" viewBox="0 0 187.0534 215.6812">
  <defs>
    <style>
      .cls-1 {
        fill: #b6a0e6;
      }
    </style>
  </defs>
  <g id="_Слой_1-2" data-name="Слой 1">
    <path class="cls-1" d="m93.5266,86c-.2559,0-.5117-.0977-.707-.293l-22.749-22.749c-.3906-.3906-.3906-1.0234,0-1.4141s1.0234-.3906,1.4141,0l22.042,22.042,22.042-22.042c.3906-.3906,1.0234-.3906,1.4141,0s.3906,1.0234,0,1.4141l-22.749,22.749c-.1953.1953-.4512.293-.707.293Z"/>
    <path class="cls-1" d="m93.5266,40.5024c-.2559,0-.5117-.0977-.707-.293l-22.749-22.749c-.3906-.3906-.3906-1.0234,0-1.4141s1.0234-.3906,1.4141,0l22.042,22.042,22.042-22.042c.3906-.3906,1.0234-.3906,1.4141,0s.3906,1.0234,0,1.4141l-22.749,22.749c-.1953.1953-.4512.293-.707.293Z"/>
    <path class="cls-1" d="m93.5266,86c-.5527,0-1-.4478-1-1v-12c0-.5522.4473-1,1-1s1,.4478,1,1v12c0,.5522-.4473,1-1,1Zm0-24c-.5527,0-1-.4478-1-1v-12c0-.5522.4473-1,1-1s1,.4478,1,1v12c0,.5522-.4473,1-1,1Zm0-24c-.5527,0-1-.4478-1-1v-12c0-.5522.4473-1,1-1s1,.4478,1,1v12c0,.5522-.4473,1-1,1Zm0-24c-.5527,0-1-.4478-1-1V1c0-.5522.4473-1,1-1s1,.4478,1,1v12c0,.5522-.4473,1-1,1Z"/>
    <path class="cls-1" d="m42.6702,105.7471c-.4419,0-.8457-.2949-.9653-.7417-.1431-.5337.1733-1.0815.707-1.2246l30.1099-8.0674-8.0684-30.1099c-.1426-.5332.1738-1.0815.707-1.2246.5352-.1426,1.082.1738,1.2246.707l8.3271,31.0757c.0684.2563.0332.5293-.0996.7588s-.3516.3975-.6074.4658l-31.0757,8.3262c-.0864.0234-.1738.0342-.2593.0347Z"/>
    <path class="cls-1" d="m3.2678,82.9985c-.4419,0-.8457-.2949-.9653-.7417-.1431-.5332.1733-1.0815.707-1.2246l30.1099-8.0679-8.0679-30.1094c-.1431-.5332.1733-1.0815.707-1.2246.5322-.1465,1.0815.1738,1.2246.707l8.3267,31.0752c.0688.2563.0327.5293-.0996.7588-.1328.2295-.3511.3975-.6074.4658l-31.0757,8.3267c-.0864.0234-.1738.0347-.2593.0347Z"/>
    <path class="cls-1" d="m73.7454,97.4204c-.1699,0-.3418-.043-.499-.1338l-10.3926-6c-.4785-.2764-.6426-.8877-.3662-1.3662.2754-.479.8887-.6426,1.3662-.3662l10.3926,6c.4785.2764.6426.8877.3662,1.3662-.1855.3208-.5215.5-.8672.5Zm-20.7847-12c-.1694,0-.3413-.043-.499-.1338l-10.3921-6c-.4785-.2764-.6421-.8877-.3662-1.3662.2764-.478.8857-.6431,1.3662-.3662l10.3921,6c.4785.2764.6421.8877.3662,1.3662-.1855.3208-.5215.5-.8672.5Zm-20.7847-12c-.1694,0-.3413-.043-.499-.1338l-10.3921-6c-.4785-.2764-.6421-.8877-.3662-1.3662.2764-.4785.8853-.6426,1.3662-.3662l10.3921,6c.4785.2764.6421.8877.3662,1.3662-.1855.3208-.5215.5-.8672.5Zm-20.7847-12c-.1694,0-.3413-.043-.499-.1338L.5002,55.2866c-.4785-.2764-.6421-.8877-.3662-1.3662s.8867-.6436,1.3662-.3662l10.3921,6c.4785.2764.6421.8877.3662,1.3662-.1855.3208-.5215.5-.8672.5Z"/>
    <path class="cls-1" d="m65.4202,151.3369c-.0859,0-.1729-.0112-.2598-.0347-.5332-.1431-.8496-.6914-.707-1.2246l8.0684-30.1099-30.1099-8.0679c-.5337-.1431-.8501-.6914-.707-1.2246s.6899-.8521,1.2246-.707l31.0757,8.3267c.2559.0684.4746.2363.6074.4658s.168.5024.0996.7588l-8.3271,31.0757c-.1191.4468-.5234.7412-.9648.7417Z"/>
    <path class="cls-1" d="m26.0178,174.0854c-.0854,0-.1724-.0112-.2593-.0347-.5337-.1431-.8501-.6914-.707-1.2246l8.0679-30.1094-30.1099-8.0679c-.5337-.1431-.8501-.6914-.707-1.2246.1431-.5327.6895-.8501,1.2246-.707l31.0757,8.3267c.2563.0684.4746.2363.6074.4658.1323.2295.1685.5024.0996.7588l-8.3267,31.0752c-.1196.4468-.5239.7412-.9653.7417Z"/>
    <path class="cls-1" d="m1.0012,162.2607c-.3457,0-.6816-.1792-.8672-.5-.2759-.4785-.1123-1.0898.3662-1.3662l10.3921-6c.4771-.2773,1.0894-.1128,1.3662.3662.2759.4785.1123,1.0898-.3662,1.3662l-10.3921,6c-.1572.0908-.3296.1338-.499.1338Zm20.7847-12c-.3457,0-.6816-.1792-.8672-.5-.2759-.4785-.1123-1.0898.3662-1.3662l10.3921-6c.4775-.2769,1.0898-.1123,1.3662.3662.2759.4785.1123,1.0898-.3662,1.3662l-10.3921,6c-.1572.0908-.3296.1338-.499.1338Zm20.7847-12c-.3457,0-.6816-.1792-.8672-.5-.2759-.4785-.1123-1.0898.3662-1.3662l10.3921-6c.478-.2764,1.0898-.1123,1.3662.3662.2759.4785.1123,1.0898-.3662,1.3662l-10.3921,6c-.1572.0908-.3296.1338-.499.1338Zm20.7842-12c-.3457,0-.6816-.1792-.8672-.5-.2764-.4785-.1123-1.0898.3662-1.3662l10.3926-6c.4766-.2759,1.0898-.1123,1.3662.3662s.1123,1.0898-.3662,1.3662l-10.3926,6c-.1572.0908-.3291.1338-.499.1338Z"/>
    <path class="cls-1" d="m116.2756,154.4302c-.2559,0-.5117-.0977-.707-.293l-22.042-22.042-22.042,22.042c-.3906.3906-1.0234.3906-1.4141,0s-.3906-1.0234,0-1.4141l22.749-22.749c.3906-.3906,1.0234-.3906,1.4141,0l22.749,22.749c.3906.3906.3906,1.0234,0,1.4141-.1953.1953-.4512.293-.707.293Z"/>
    <path class="cls-1" d="m116.2756,199.9277c-.2559,0-.5117-.0977-.707-.293l-22.042-22.042-22.042,22.042c-.3906.3906-1.0234.3906-1.4141,0s-.3906-1.0234,0-1.4141l22.749-22.749c.3906-.3906,1.0234-.3906,1.4141,0l22.749,22.749c.3906.3906.3906,1.0234,0,1.4141-.1953.1953-.4512.293-.707.293Z"/>
    <path class="cls-1" d="m93.5266,215.6812c-.5527,0-1-.4478-1-1v-12c0-.5522.4473-1,1-1s1,.4478,1,1v12c0,.5522-.4473,1-1,1Zm0-24c-.5527,0-1-.4478-1-1v-12c0-.5522.4473-1,1-1s1,.4478,1,1v12c0,.5522-.4473,1-1,1Zm0-24c-.5527,0-1-.4478-1-1v-12c0-.5522.4473-1,1-1s1,.4478,1,1v12c0,.5522-.4473,1-1,1Zm0-24c-.5527,0-1-.4478-1-1v-12c0-.5522.4473-1,1-1s1,.4478,1,1v12c0,.5522-.4473,1-1,1Z"/>
    <path class="cls-1" d="m121.633,151.3369c-.4414,0-.8457-.2949-.9648-.7417l-8.3271-31.0757c-.0684-.2563-.0332-.5293.0996-.7588s.3516-.3975.6074-.4658l31.0762-8.3267c.5352-.1436,1.082.1733,1.2246.707.1426.5332-.1738,1.0815-.707,1.2246l-30.1104,8.0679,8.0684,30.1099c.1426.5332-.1738,1.0815-.707,1.2246-.0869.0234-.1738.0347-.2598.0347Z"/>
    <path class="cls-1" d="m161.0344,174.0854c-.4414,0-.8457-.2949-.9648-.7417l-8.3262-31.0752c-.1426-.5332.1738-1.0815.707-1.2246l31.0752-8.3267c.5352-.1416,1.082.1733,1.2246.707.1426.5332-.1738,1.0815-.707,1.2246l-30.1094,8.0679,8.0674,30.1094c.1426.5332-.1738,1.082-.707,1.2246-.0869.0234-.1738.0347-.2598.0347Z"/>
    <path class="cls-1" d="m186.052,162.2607c-.1699,0-.3418-.043-.499-.1338l-10.3926-6c-.4785-.2764-.6426-.8877-.3662-1.3662s.8887-.6431,1.3662-.3662l10.3926,6c.4785.2764.6426.8877.3662,1.3662-.1855.3208-.5215.5-.8672.5Zm-20.7842-12c-.1699,0-.3418-.043-.499-.1338l-10.3926-6c-.4785-.2764-.6426-.8877-.3662-1.3662s.8877-.6421,1.3662-.3662l10.3926,6c.4785.2764.6426.8877.3662,1.3662-.1855.3208-.5215.5-.8672.5Zm-20.7852-12c-.1699,0-.3418-.043-.499-.1338l-10.3926-6c-.4785-.2764-.6426-.8877-.3662-1.3662.2764-.4795.8887-.6421,1.3662-.3662l10.3926,6c.4785.2764.6426.8877.3662,1.3662-.1855.3208-.5215.5-.8672.5Zm-20.7842-12c-.1699,0-.3418-.043-.499-.1338l-10.3926-6c-.4785-.2764-.6426-.8877-.3662-1.3662s.8887-.6421,1.3662-.3662l10.3926,6c.4785.2764.6426.8877.3662,1.3662-.1855.3208-.5215.5-.8672.5Z"/>
    <path class="cls-1" d="m144.384,105.7471c-.0859,0-.1729-.0112-.2598-.0347l-31.0762-8.3262c-.2559-.0684-.4746-.2363-.6074-.4658s-.168-.5024-.0996-.7588l8.3271-31.0757c.1426-.5332.6934-.8486,1.2246-.707.5332.1431.8496.6914.707,1.2246l-8.0684,30.1099,30.1104,8.0674c.5332.1426.8496.6909.707,1.2246-.1191.4468-.5234.7417-.9648.7417Z"/>
    <path class="cls-1" d="m183.7854,82.9985c-.0859,0-.1729-.0112-.2598-.0347l-31.0752-8.3267c-.5332-.1431-.8496-.6909-.707-1.2246l8.3262-31.0752c.1426-.5337.6924-.8506,1.2246-.707.5332.1431.8496.6914.707,1.2246l-8.0674,30.1094,30.1094,8.0679c.5332.1431.8496.6914.707,1.2246-.1191.4468-.5234.7417-.9648.7417Z"/>
    <path class="cls-1" d="m113.3079,97.4204c-.3457,0-.6816-.1792-.8672-.5-.2764-.4785-.1123-1.0898.3662-1.3662l10.3926-6c.4766-.2764,1.0898-.1128,1.3662.3662.2764.4785.1123,1.0898-.3662,1.3662l-10.3926,6c-.1572.0908-.3291.1338-.499.1338Zm20.7842-12c-.3457,0-.6816-.1792-.8672-.5-.2764-.4785-.1123-1.0898.3662-1.3662l10.3926-6c.4756-.2769,1.0889-.1128,1.3662.3662.2764.4785.1123,1.0898-.3662,1.3662l-10.3926,6c-.1572.0908-.3291.1338-.499.1338Zm20.7852-12c-.3457,0-.6816-.1792-.8672-.5-.2764-.4785-.1123-1.0898.3662-1.3662l10.3926-6c.4756-.2769,1.0889-.1128,1.3662.3662.2764.4785.1123,1.0898-.3662,1.3662l-10.3926,6c-.1572.0908-.3291.1338-.499.1338Zm20.7842-12c-.3457,0-.6816-.1792-.8672-.5-.2764-.4785-.1123-1.0898.3662-1.3662l10.3926-5.9995c.4766-.2759,1.0889-.1133,1.3662.3662.2764.4785.1123,1.0898-.3662,1.3662l-10.3926,5.9995c-.1572.0908-.3291.1338-.499.1338Z"/>
    <path class="cls-1" d="m93.5266,131.6011c-2.0703,0-4.1299-.2686-6.123-.7988-.5342-.1416-.8516-.6895-.71-1.2231.1426-.5337.6924-.8516,1.2236-.7095,3.667.9746,7.5957.9712,11.2637-.0122.5352-.144,1.0811.1733,1.2246.707.1436.5332-.1738,1.0815-.707,1.2246-2.0098.5391-4.0859.812-6.1719.812Zm16.1045-6.6777c-.2559,0-.5117-.0972-.7061-.2925-.3916-.3901-.3916-1.0229-.002-1.4141,2.7021-2.7065,4.6484-6.0786,5.6279-9.7524.1426-.5337.6924-.8491,1.2236-.7085.5332.1421.8506.6904.708,1.2241-1.0693,4.0122-3.1943,7.6948-6.1436,10.6499-.1953.1958-.4521.2935-.708.2935Zm-32.8828-.2583l-.0234-.0234c-2.9443-2.9438-5.0684-6.6138-6.1426-10.6128-.1436-.5332.1729-1.082.7061-1.2251.5352-.1445,1.082.1729,1.2256.7065.9834,3.6606,2.9287,7.021,5.625,9.7173l-1.3906,1.4375Zm-5.2197-21.6748c-.085,0-.1709-.0112-.2568-.0337-.5342-.1416-.8525-.689-.7109-1.2227,1.0635-4.0142,3.1826-7.7002,6.1279-10.6592.3896-.3906,1.0244-.3926,1.4141-.0029.3916.3896.3936,1.0225.0039,1.4141-2.6982,2.71-4.6387,6.085-5.6123,9.7598-.1191.4482-.5234.7446-.9658.7446Zm43.9834-.0469c-.4414,0-.8457-.2954-.9648-.7422-.9814-3.6729-2.9297-7.0439-5.6338-9.748-.3887-.3882-.4141-1.04-.0283-1.4316.3848-.3926.9922-.4214,1.3848-.0396.0117.0112.0693.0684.0801.0801,2.9297,2.9292,5.0576,6.6108,6.1289,10.6226.1426.5337-.1738,1.082-.708,1.2246-.0859.0229-.1729.0342-.2588.0342Zm-27.9316-16.0771c-.4404,0-.8447-.2939-.9648-.7402-.1436-.5332.1729-1.082.7061-1.2256,3.9971-1.0781,8.2861-1.0894,12.2949-.0303.5342.1411.8525.688.7119,1.2222s-.6943.8481-1.2217.7114c-3.6748-.9697-7.6006-.959-11.2656.0273-.0869.0239-.1738.0352-.2607.0352Z"/>
    <path class="cls-1" d="m28.9294,118.1396c-2.7515,0-5.3379-1.0713-7.2827-3.0166-1.9453-1.9448-3.0166-4.5312-3.0166-7.2822s1.0713-5.3379,3.0166-7.2827c1.9448-1.9453,4.5312-3.0166,7.2827-3.0166s5.3374,1.0713,7.2827,3.0166c4.0156,4.0156,4.0156,10.5493,0,14.5649-1.9453,1.9453-4.5317,3.0166-7.2827,3.0166Zm0-18.5981c-2.2168,0-4.3013.8633-5.8687,2.4307s-2.4307,3.6514-2.4307,5.8687.8633,4.3008,2.4307,5.8682,3.6519,2.4307,5.8687,2.4307,4.3008-.8633,5.8687-2.4307c3.2358-3.2358,3.2358-8.501,0-11.7368-1.5679-1.5674-3.6519-2.4307-5.8687-2.4307Z"/>
    <path class="cls-1" d="m61.2307,174.084c-4.5474,0-8.7192-3.0386-9.9512-7.6348-1.4697-5.4854,1.7974-11.144,7.2827-12.6143h0c5.4858-1.4722,11.144,1.7979,12.6138,7.2827,1.4697,5.4854-1.7969,11.144-7.2822,12.6143-.8896.2383-1.7832.3521-2.6631.3521Zm-2.1509-18.3174h0c-4.4199,1.1846-7.0527,5.7446-5.8687,10.165,1.1841,4.4194,5.7427,7.0532,10.165,5.8687,4.4199-1.1846,7.0527-5.7446,5.8682-10.165-1.1846-4.4199-5.7422-7.0527-10.1646-5.8687Z"/>
    <path class="cls-1" d="m125.8225,174.084c-.8799,0-1.7734-.1138-2.6631-.3521-2.6572-.7119-4.8789-2.4165-6.2539-4.7988-1.376-2.3823-1.7402-5.1582-1.0283-7.8154h0c1.4697-5.4854,7.125-8.7544,12.6133-7.2827,5.4854,1.4702,8.7529,7.1289,7.2832,12.6143-1.2314,4.5957-5.4033,7.6348-9.9512,7.6348Zm.0049-18.6011c-3.6641,0-7.0264,2.4487-8.0186,6.1523h0c-.5742,2.1416-.2793,4.3779.8291,6.2979s2.8975,3.293,5.0391,3.8672c4.4209,1.1841,8.9805-1.4482,10.165-5.8687s-1.4492-8.98-5.8691-10.165c-.7168-.1919-1.4365-.2837-2.1455-.2837Zm-8.9844,5.8936h.0098-.0098Z"/>
    <path class="cls-1" d="m158.1243,118.1348c-2.6377.0005-5.2754-1.0039-7.2832-3.0117h0s0,.0005,0,0c-1.9453-1.9448-3.0166-4.5312-3.0166-7.2822s1.0713-5.3379,3.0166-7.2827c4.0176-4.0171,10.5518-4.0151,14.5654,0,1.9453,1.9448,3.0166,4.5312,3.0166,7.2827s-1.0713,5.3374-3.0166,7.2822c-2.0078,2.0078-4.6455,3.0117-7.2822,3.0117Zm-.001-18.5894c-2.125,0-4.25.8091-5.8682,2.4268-1.5674,1.5674-2.4307,3.6514-2.4307,5.8687s.8633,4.3008,2.4307,5.8682h0c3.2363,3.2358,8.501,3.2349,11.7373,0,1.5674-1.5674,2.4307-3.6514,2.4307-5.8682s-.8633-4.3013-2.4307-5.8687c-1.6182-1.6177-3.7432-2.4268-5.8691-2.4268Z"/>
    <path class="cls-1" d="m125.8274,62.1982c-4.5469,0-8.7188-3.0386-9.9502-7.6348-.7129-2.6572-.3477-5.4326,1.0283-7.8154,1.375-2.3823,3.5967-4.0869,6.2539-4.7988,5.4873-1.4697,11.1445,1.7969,12.6143,7.2827,1.4697,5.4854-1.7979,11.144-7.2832,12.6143h0c-.8896.2383-1.7832.3521-2.6631.3521Zm2.4043-1.3179h.0098-.0098Zm-2.4082-17.2832c-.71,0-1.4297.0918-2.1465.2837-2.1416.5742-3.9307,1.9473-5.0391,3.8672s-1.4033,4.1562-.8291,6.2979c1.1846,4.4199,5.7422,7.0522,10.1641,5.8687h0c4.4199-1.1851,7.0537-5.7446,5.8691-10.165-.9922-3.7036-4.3545-6.1523-8.0186-6.1523Z"/>
    <path class="cls-1" d="m61.2248,62.1982c-.8799,0-1.7729-.1138-2.6626-.3521-5.4854-1.4702-8.7524-7.1289-7.2827-12.6143,1.4692-5.4858,7.1255-8.7529,12.6143-7.2827,5.4854,1.4702,8.752,7.1289,7.2822,12.6143-1.2314,4.5957-5.4043,7.6348-9.9512,7.6348Zm.0059-18.6011c-3.6646,0-7.0269,2.4487-8.0195,6.1523-1.1841,4.4204,1.4487,8.9805,5.8687,10.165,4.4224,1.1836,8.98-1.4482,10.1646-5.8687s-1.4482-8.9805-5.8682-10.165c-.7168-.1919-1.4365-.2837-2.1455-.2837Z"/>
  </g>
</svg>