<?xml version="1.0" encoding="UTF-8"?>
<svg id="_Слой_2" data-name="Слой 2" xmlns="http://www.w3.org/2000/svg" viewBox="0 0 201.8911 201.8911">
  <defs>
    <style>
      .cls-1, .cls-2, .cls-3 {
        fill: none;
        stroke: #b6a0e6;
        stroke-linecap: round;
        stroke-linejoin: round;
        stroke-width: 2px;
      }

      .cls-2 {
        stroke-dasharray: 0 0 6.4194 6.4194;
      }

      .cls-3 {
        stroke-dasharray: 0 0 12.5714 12.5714;
      }
    </style>
  </defs>
  <g id="_Слой_1-2" data-name="Слой 1">
    <path class="cls-2" d="m108.5032,97.8151c1.7289,4.1739-.2532,8.9591-4.4271,10.688s-8.9591-.2532-10.6881-4.4271c-1.7289-4.174.2533-8.9591,4.4272-10.688,4.1738-1.7289,8.9591.2532,10.688,4.4272Z"/>
    <g>
      <line class="cls-1" x1="97.8152" y1="93.3879" x2="95.519" y2="87.8447"/>
      <line class="cls-3" x1="90.7081" y1="76.2302" x2="64.2483" y2="12.3505"/>
      <line class="cls-1" x1="61.8429" y1="6.5433" x2="59.5468" y2="1"/>
    </g>
    <g>
      <line class="cls-1" x1="93.3879" y1="97.8151" x2="87.8447" y2="95.519"/>
      <line class="cls-3" x1="76.2302" y1="90.7081" x2="12.3506" y2="64.2483"/>
      <line class="cls-1" x1="6.5433" y1="61.8428" x2="1" y2="59.5467"/>
    </g>
    <g>
      <line class="cls-1" x1="93.3879" y1="104.076" x2="87.8447" y2="106.3721"/>
      <line class="cls-3" x1="76.2302" y1="111.183" x2="12.3506" y2="137.6428"/>
      <line class="cls-1" x1="6.5433" y1="140.0482" x2="1" y2="142.3443"/>
    </g>
    <g>
      <line class="cls-1" x1="97.8152" y1="108.5031" x2="95.519" y2="114.0464"/>
      <line class="cls-3" x1="90.7081" y1="125.6609" x2="64.2483" y2="189.5406"/>
      <line class="cls-1" x1="61.8429" y1="195.3478" x2="59.5468" y2="200.8911"/>
    </g>
    <g>
      <line class="cls-1" x1="104.076" y1="108.5031" x2="106.3721" y2="114.0464"/>
      <line class="cls-3" x1="111.183" y1="125.6609" x2="137.6428" y2="189.5406"/>
      <line class="cls-1" x1="140.0482" y1="195.3478" x2="142.3444" y2="200.8911"/>
    </g>
    <g>
      <line class="cls-1" x1="108.5032" y1="104.076" x2="114.0464" y2="106.3721"/>
      <line class="cls-3" x1="125.6609" y1="111.183" x2="189.5406" y2="137.6428"/>
      <line class="cls-1" x1="195.3478" y1="140.0482" x2="200.8911" y2="142.3443"/>
    </g>
    <g>
      <line class="cls-1" x1="108.5032" y1="97.8151" x2="114.0464" y2="95.519"/>
      <line class="cls-3" x1="125.6609" y1="90.7081" x2="189.5406" y2="64.2483"/>
      <line class="cls-1" x1="195.3478" y1="61.8428" x2="200.8911" y2="59.5467"/>
    </g>
    <g>
      <line class="cls-1" x1="104.076" y1="93.3879" x2="106.3721" y2="87.8447"/>
      <line class="cls-3" x1="111.183" y1="76.2302" x2="137.6428" y2="12.3505"/>
      <line class="cls-1" x1="140.0482" y1="6.5433" x2="142.3444" y2="1"/>
    </g>
    <line class="cls-1" x1="61.9665" y1="6.8418" x2="139.9246" y2="6.8418"/>
    <line class="cls-1" x1="6.8419" y1="61.9665" x2="61.9665" y2="6.8418"/>
    <line class="cls-1" x1="6.8419" y1="139.9246" x2="6.8419" y2="61.9665"/>
    <line class="cls-1" x1="61.9665" y1="195.0493" x2="6.8419" y2="139.9246"/>
    <line class="cls-1" x1="139.9246" y1="195.0493" x2="61.9665" y2="195.0493"/>
    <line class="cls-1" x1="195.0493" y1="139.9246" x2="139.9246" y2="195.0493"/>
    <line class="cls-1" x1="195.0493" y1="61.9665" x2="195.0493" y2="139.9246"/>
    <line class="cls-1" x1="139.9246" y1="6.8418" x2="195.0493" y2="61.9665"/>
  </g>
</svg>